<svg width="218" height="74" viewBox="0 0 218 74" fill="none" xmlns="http://www.w3.org/2000/svg">
<path d="M176.077 2.64754L36.7278 12.6926C16.4436 14.1548 0.943457 28.401 2.10727 44.5123C3.27109 60.6237 20.6581 72.4992 40.9424 71.037L180.292 60.9919C200.576 59.5297 216.076 45.2836 214.913 29.1722C213.749 13.0608 196.362 1.18535 176.077 2.64754Z" fill="#45F8FA"/>
<path d="M33.6058 28.1046H52.4236V43.3079H47.7779V31.7905H38.2414V43.3079H33.6058V28.1046ZM60.4183 43.4508C59.4994 43.4508 58.6996 43.3827 58.0189 43.2466C57.345 43.1037 56.7869 42.879 56.3444 42.5727C55.9088 42.2664 55.582 41.8648 55.3642 41.3679C55.1532 40.8642 55.0477 40.2413 55.0477 39.4994V36.5792C55.0477 35.8236 55.1396 35.1804 55.3234 34.6494C55.514 34.1185 55.8169 33.6897 56.2321 33.3629C56.6541 33.0362 57.2055 32.798 57.8862 32.6482C58.5669 32.4916 59.4041 32.4134 60.3979 32.4134H64.2881C65.2343 32.4134 66.0443 32.4916 66.7182 32.6482C67.3989 32.798 67.9536 33.0328 68.3825 33.3527C68.8181 33.6727 69.1346 34.0913 69.332 34.6086C69.5362 35.1259 69.6383 35.7386 69.6383 36.4465V39.4381C69.6383 40.1937 69.5328 40.8301 69.3218 41.3475C69.1176 41.858 68.7977 42.2698 68.362 42.5829C67.9332 42.896 67.3784 43.1207 66.6977 43.2568C66.0239 43.3861 65.2206 43.4508 64.2881 43.4508H60.4183ZM63.2568 40.5511C64.1349 40.5511 64.7714 40.4149 65.1662 40.1426C65.5678 39.8704 65.7686 39.3701 65.7686 38.6417V37.2225C65.7686 36.5145 65.5712 36.021 65.1764 35.742C64.7884 35.4629 64.1485 35.3233 63.2568 35.3233H61.4394C60.9697 35.3233 60.5715 35.354 60.2448 35.4152C59.9248 35.4765 59.6628 35.5854 59.4586 35.742C59.2612 35.8917 59.1182 36.0925 59.0297 36.3444C58.9481 36.5962 58.9072 36.9093 58.9072 37.2837V38.6621C58.9072 39.3769 59.1046 39.8704 59.4994 40.1426C59.901 40.4149 60.5477 40.5511 61.4394 40.5511H63.2568ZM77.1123 43.4508C76.173 43.4508 75.3732 43.3827 74.7129 43.2466C74.0526 43.1037 73.5081 42.8756 73.0792 42.5625C72.6572 42.2494 72.3441 41.841 72.1399 41.3373C71.9357 40.8267 71.8336 40.2005 71.8336 39.4585V39.2748C71.8336 39.2611 71.8404 39.2543 71.854 39.2543H75.5808V39.4381C75.5808 39.7172 75.6182 39.9452 75.6931 40.1222C75.7748 40.2924 75.9075 40.4251 76.0913 40.5204C76.2819 40.6089 76.5338 40.6702 76.8469 40.7042C77.16 40.7382 77.548 40.7553 78.0109 40.7553H80.6247C80.7881 40.7553 80.9583 40.7519 81.1352 40.7451C81.319 40.7382 81.4824 40.7076 81.6253 40.6532C81.7751 40.5987 81.8942 40.517 81.9827 40.4081C82.078 40.2924 82.1256 40.129 82.1256 39.918C82.1256 39.4347 81.867 39.1931 81.3497 39.1931H77.3574V36.6405H81.0638C81.5334 36.6405 81.7683 36.4022 81.7683 35.9257C81.7683 35.7147 81.7308 35.5514 81.656 35.4356C81.5811 35.3199 81.4756 35.2348 81.3394 35.1804C81.2101 35.1191 81.057 35.0851 80.88 35.0783C80.7098 35.0715 80.526 35.0681 80.3286 35.0681H77.2757C76.6903 35.0681 76.2751 35.1566 76.03 35.3335C75.785 35.5037 75.6625 35.7726 75.6625 36.1402V36.3648H72.0071V36.0891C72.0071 35.2995 72.1569 34.6631 72.4564 34.1798C72.7559 33.6965 73.1473 33.3255 73.6306 33.0668C74.1207 32.8014 74.6721 32.6278 75.2847 32.5461C75.8973 32.4576 76.5269 32.4134 77.1736 32.4134H80.8289C81.4279 32.4134 82.0133 32.4372 82.5851 32.4848C83.1569 32.5325 83.6674 32.6618 84.1167 32.8728C84.5727 33.0839 84.9369 33.4004 85.2092 33.8224C85.4815 34.2376 85.6176 34.8128 85.6176 35.548C85.6176 36.1334 85.4849 36.6098 85.2194 36.9774C84.9539 37.3382 84.5489 37.6207 84.0044 37.8249C84.6919 37.9814 85.1922 38.2639 85.5053 38.6723C85.8184 39.074 85.975 39.6083 85.975 40.2754C85.975 41.0309 85.8218 41.6231 85.5155 42.052C85.2092 42.474 84.811 42.7905 84.3209 43.0015C83.8308 43.2058 83.2794 43.3317 82.6668 43.3793C82.0542 43.427 81.4416 43.4508 80.8289 43.4508H77.1123ZM88.5684 32.5563H98.2785C98.8775 32.5563 99.4187 32.5972 99.9019 32.6788C100.392 32.7537 100.811 32.9001 101.158 33.1179C101.512 33.3289 101.777 33.6318 101.954 34.0266C102.138 34.4146 102.23 34.9217 102.23 35.548C102.23 36.6643 101.699 37.4233 100.637 37.8249C101.236 37.9814 101.713 38.2537 102.067 38.6417C102.427 39.0229 102.608 39.547 102.608 40.2141C102.608 40.8267 102.526 41.3339 102.363 41.7355C102.206 42.1303 101.964 42.4434 101.638 42.6748C101.318 42.8994 100.913 43.0628 100.423 43.1649C99.9394 43.2602 99.3778 43.3079 98.738 43.3079H88.5684V32.5563ZM97.625 36.6405C98.0879 36.6405 98.3193 36.3954 98.3193 35.9053C98.3193 35.6671 98.2547 35.4867 98.1253 35.3642C98.0028 35.2348 97.836 35.1702 97.625 35.1702H92.4381V36.6405H97.625ZM98.6359 39.8159C98.6359 39.564 98.5644 39.3735 98.4214 39.2441C98.2853 39.108 98.0981 39.0399 97.8599 39.0399H92.4381V40.6532H97.8599C98.3772 40.6532 98.6359 40.3741 98.6359 39.8159ZM110.184 43.4508C109.265 43.4508 108.465 43.3827 107.784 43.2466C107.11 43.1037 106.552 42.879 106.11 42.5727C105.674 42.2664 105.347 41.8648 105.13 41.3679C104.919 40.8642 104.813 40.2413 104.813 39.4994V36.5792C104.813 35.8236 104.905 35.1804 105.089 34.6494C105.279 34.1185 105.582 33.6897 105.998 33.3629C106.42 33.0362 106.971 32.798 107.652 32.6482C108.332 32.4916 109.17 32.4134 110.163 32.4134H114.054C115 32.4134 115.81 32.4916 116.484 32.6482C117.164 32.798 117.719 33.0328 118.148 33.3527C118.584 33.6727 118.9 34.0913 119.097 34.6086C119.302 35.1259 119.404 35.7386 119.404 36.4465V39.4381C119.404 40.1937 119.298 40.8301 119.087 41.3475C118.883 41.858 118.563 42.2698 118.128 42.5829C117.699 42.896 117.144 43.1207 116.463 43.2568C115.789 43.3861 114.986 43.4508 114.054 43.4508H110.184ZM113.022 40.5511C113.9 40.5511 114.537 40.4149 114.932 40.1426C115.333 39.8704 115.534 39.3701 115.534 38.6417V37.2225C115.534 36.5145 115.337 36.021 114.942 35.742C114.554 35.4629 113.914 35.3233 113.022 35.3233H111.205C110.735 35.3233 110.337 35.354 110.01 35.4152C109.69 35.4765 109.428 35.5854 109.224 35.742C109.027 35.8917 108.884 36.0925 108.795 36.3444C108.714 36.5962 108.673 36.9093 108.673 37.2837V38.6621C108.673 39.3769 108.87 39.8704 109.265 40.1426C109.666 40.4149 110.313 40.5511 111.205 40.5511H113.022ZM122.038 32.5563H125.908V36.3444H131.554V32.5563H135.424V43.3079H131.554V39.2748H125.908V43.3079H122.038V32.5563ZM138.416 32.5563H142.285V39.9997L147.809 32.5563H153.016V43.3079H149.147V35.9053L143.582 43.3079H138.416V32.5563ZM159.163 35.405H154.936V32.5563H167.25V35.405H163.033V43.3079H159.163V35.405ZM169.169 32.5563H173.039V35.8236H177.623C178.345 35.8236 178.978 35.8815 179.523 35.9972C180.067 36.1061 180.516 36.3001 180.87 36.5792C181.231 36.8583 181.497 37.2395 181.667 37.7228C181.844 38.1993 181.932 38.7983 181.932 39.5198C181.932 40.2618 181.844 40.8778 181.667 41.3679C181.497 41.8512 181.231 42.2358 180.87 42.5217C180.516 42.8076 180.067 43.0118 179.523 43.1343C178.978 43.25 178.345 43.3079 177.623 43.3079H169.169V32.5563ZM173.039 40.5511H177.082C177.681 40.5511 177.981 40.2277 177.981 39.5811C177.981 39.2067 177.909 38.9412 177.766 38.7847C177.63 38.6213 177.402 38.5396 177.082 38.5396H173.039V40.5511Z" fill="black"/>
</svg>
