<?xml version="1.0" encoding="UTF-8"?>
<!DOCTYPE svg PUBLIC "-//W3C//DTD SVG 1.0//EN" "http://www.w3.org/TR/2001/REC-SVG-20010904/DTD/svg10.dtd">
<!-- Creator: CorelDRAW 2020 (64-Bit) -->
<svg xmlns="http://www.w3.org/2000/svg" xml:space="preserve" width="31.9682mm" height="79.879mm" version="1.0" style="shape-rendering:geometricPrecision; text-rendering:geometricPrecision; image-rendering:optimizeQuality; fill-rule:evenodd; clip-rule:evenodd"
viewBox="0 0 7.5615 18.894"
 xmlns:xlink="http://www.w3.org/1999/xlink"
 xmlns:xodm="http://www.corel.com/coreldraw/odm/2003">
 <defs>
  <style type="text/css">
   <![CDATA[
    .fil0 {fill:#45F8FA}
   ]]>
  </style>
 </defs>
 <g id="Слой_x0020_1">
  <metadata id="CorelCorpID_0Corel-Layer"/>
  <path class="fil0" d="M4.2304 9.4284c-0.0052,-0.2063 -0.0046,-0.5001 0.0151,-0.9769 0.0116,-0.4846 0.042,-1.1681 0.1371,-1.8056 0.0874,-0.6294 0.2398,-1.1969 0.4281,-1.9162 0.1883,-0.7192 0.3966,-1.5899 0.5568,-2.1655 0.1602,-0.5757 0.2563,-0.8559 0.2434,-1.0541 -0.0129,-0.1982 -0.135,-0.3142 -0.2716,-0.3822 -0.1367,-0.068 -0.2958,-0.0799 -0.4277,0.0425 -0.1242,0.1143 -0.2211,0.3628 -0.3396,0.6992 -0.1186,0.3364 -0.2664,0.7689 -0.3981,1.2168 -0.1393,0.4561 -0.2706,0.9198 -0.3741,1.2241 -0.1035,0.3043 -0.1638,0.4328 -0.2484,0.5382 -0.0928,0.0976 -0.2023,0.1638 -0.282,0.15 -0.0797,-0.0139 -0.1298,-0.1079 -0.126,-0.2747 0.0037,-0.1668 0.0531,-0.4142 0.1476,-0.7579 0.0945,-0.3438 0.2424,-0.7762 0.3895,-1.2404 0.139,-0.4719 0.2771,-0.9756 0.3485,-1.2949 0.0713,-0.3194 0.0759,-0.4544 0.0413,-0.5647 -0.0345,-0.1103 -0.1004,-0.2039 -0.1968,-0.2491 -0.0964,-0.0452 -0.2152,-0.0343 -0.3312,0.0878 -0.1242,0.1143 -0.2219,0.3311 -0.4749,1.0043 -0.2449,0.681 -0.6291,1.818 -0.8287,2.4026 -0.1996,0.5846 -0.2224,0.6248 -0.2774,0.65 -0.0472,0.0171 -0.1343,0.0272 -0.1908,-0.0111 -0.0484,-0.0305 -0.0817,-0.0932 -0.1073,-0.164 -0.0256,-0.0708 -0.0597,-0.1652 0.1204,-0.8922 0.172,-0.7347 0.558,-2.1179 0.7223,-2.8445 0.1566,-0.7185 0.1078,-0.7649 0.0272,-0.8105 -0.0883,-0.0374 -0.192,-0.0587 -0.3259,-0.0156 -0.1339,0.0431 -0.2824,0.1341 -0.6165,1.0555 -0.3341,0.9214 -0.8382,2.6569 -1.1161,3.6007 -0.2702,0.9357 -0.3142,1.0797 -0.3604,1.454 -0.0461,0.3743 -0.1022,0.987 -0.1118,1.5509 -0.0096,0.5639 0.0113,1.0794 0.0124,1.4367 0.0169,0.3568 0.014,0.5554 0.0374,0.8565 0.0234,0.3011 0.081,0.6966 0.1618,1.0677 0.0889,0.3788 0.1933,0.7414 0.2961,1.0405 0.0951,0.3072 0.1885,0.551 0.2735,0.7711 0.0849,0.2202 0.1609,0.4008 0.4016,0.8156 0.2407,0.4147 0.6379,1.0557 1.1404,1.7814 0.5107,0.7334 1.1113,1.5678 1.637,2.2691 0.5258,0.7013 0.9531,1.278 1.4898,1.1534 0.5367,-0.1247 1.1832,-0.9348 1.6225,-1.4619 0.4393,-0.5271 0.6953,-0.7638 0.2653,-1.7612 -0.4219,-0.9897 -1.522,-2.7483 -2.1448,-3.8362 -0.6228,-1.0879 -0.7842,-1.5046 -0.8707,-1.7882 -0.0784,-0.2759 -0.0897,-0.4106 -0.0949,-0.6169l0.0005 0.0158z"/>
 </g>
</svg>
