<?xml version="1.0" encoding="UTF-8"?>
<!DOCTYPE svg PUBLIC "-//W3C//DTD SVG 1.0//EN" "http://www.w3.org/TR/2001/REC-SVG-20010904/DTD/svg10.dtd">
<!-- Creator: CorelDRAW 2020 (64-Bit) -->
<svg xmlns="http://www.w3.org/2000/svg" xml:space="preserve" width="35.1401mm" height="78.559mm" version="1.0" style="shape-rendering:geometricPrecision; text-rendering:geometricPrecision; image-rendering:optimizeQuality; fill-rule:evenodd; clip-rule:evenodd"
viewBox="0 0 0.0395 0.0883"
 xmlns:xlink="http://www.w3.org/1999/xlink"
 xmlns:xodm="http://www.corel.com/coreldraw/odm/2003">
 <defs>
  <style type="text/css">
   <![CDATA[
    .fil0 {fill:#45F8FA}
   ]]>
  </style>
 </defs>
 <g id="Слой_x0020_1">
  <metadata id="CorelCorpID_0Corel-Layer"/>
  <path class="fil0" d="M0.0209 0.0439c-0.0001,-0.001 -0.0002,-0.0023 -0.0003,-0.0046 -0.0001,-0.0023 -0.0003,-0.0056 -0.0001,-0.0086 0.0002,-0.003 0.0007,-0.0058 0.0013,-0.0093 0.0006,-0.0035 0.0013,-0.0077 0.0018,-0.0105 0.0005,-0.0028 0.0009,-0.0041 0.0007,-0.0051 -0.0001,-0.0009 -0.0008,-0.0014 -0.0015,-0.0017 -0.0007,-0.0002 -0.0014,-0.0002 -0.002,0.0004 -0.0006,0.0006 -0.0009,0.0018 -0.0013,0.0034 -0.0004,0.0016 -0.0009,0.0037 -0.0014,0.0059 -0.0005,0.0022 -0.0009,0.0045 -0.0013,0.0059 -0.0003,0.0015 -0.0006,0.0021 -0.001,0.0026 -0.0004,0.0005 -0.0009,0.0008 -0.0013,0.0008 -0.0004,-0 -0.0006,-0.0005 -0.0007,-0.0013 -0.0001,-0.0008 0.0001,-0.002 0.0004,-0.0036 0.0003,-0.0017 0.0009,-0.0038 0.0013,-0.0061 0.0005,-0.0023 0.0009,-0.0047 0.0011,-0.0063 0.0002,-0.0015 0.0002,-0.0022 -0,-0.0027 -0.0002,-0.0005 -0.0006,-0.0009 -0.001,-0.0011 -0.0005,-0.0002 -0.001,-0 -0.0015,0.0005 -0.0005,0.0006 -0.0009,0.0017 -0.0018,0.005 -0.0009,0.0033 -0.0022,0.0088 -0.003,0.0117 -0.0007,0.0029 -0.0008,0.0031 -0.001,0.0032 -0.0002,0.0001 -0.0006,0.0002 -0.0009,0 -0.0003,-0.0001 -0.0004,-0.0004 -0.0006,-0.0007 -0.0002,-0.0003 -0.0003,-0.0007 0.0002,-0.0043 0.0005,-0.0036 0.0018,-0.0103 0.0023,-0.0137 0.0005,-0.0035 0.0002,-0.0037 -0.0002,-0.0038 -0.0004,-0.0001 -0.0009,-0.0002 -0.0015,0 -0.0006,0.0002 -0.0013,0.0008 -0.0025,0.0052 -0.0012,0.0045 -0.0029,0.0129 -0.0038,0.0175 -0.0009,0.0046 -0.0011,0.0052 -0.0011,0.007 -0.0001,0.0018 -0.0001,0.0047 0.0001,0.0074 0.0002,0.0027 0.0005,0.0051 0.0007,0.0068 0.0002,0.0017 0.0003,0.0026 0.0005,0.004 0.0002,0.0014 0.0007,0.0032 0.0012,0.005 0.0005,0.0018 0.0012,0.0034 0.0018,0.0048 0.0006,0.0014 0.0011,0.0026 0.0016,0.0035 0.0005,0.001 0.0009,0.0018 0.0022,0.0037 0.0013,0.0019 0.0034,0.0047 0.0061,0.008 0.0027,0.0033 0.0059,0.007 0.0087,0.0101 0.0028,0.0031 0.005,0.0056 0.0075,0.0049 0.0025,-0.0008 0.0052,-0.0049 0.0071,-0.0076 0.0019,-0.0027 0.003,-0.0039 0.0006,-0.0084 -0.0024,-0.0045 -0.0083,-0.0124 -0.0117,-0.0173 -0.0034,-0.0049 -0.0043,-0.0068 -0.0048,-0.0081 -0.0005,-0.0013 -0.0006,-0.0019 -0.0007,-0.0029z"/>
 </g>
</svg>
