<?xml version="1.0" encoding="UTF-8"?>
<!DOCTYPE svg PUBLIC "-//W3C//DTD SVG 1.0//EN" "http://www.w3.org/TR/2001/REC-SVG-20010904/DTD/svg10.dtd">
<!-- Creator: CorelDRAW 2020 (64-Bit) -->
<svg xmlns="http://www.w3.org/2000/svg" xml:space="preserve" width="66.0061mm" height="55.4997mm" version="1.0" style="shape-rendering:geometricPrecision; text-rendering:geometricPrecision; image-rendering:optimizeQuality; fill-rule:evenodd; clip-rule:evenodd"
viewBox="0 0 0.1391 0.1169"
 xmlns:xlink="http://www.w3.org/1999/xlink"
 xmlns:xodm="http://www.corel.com/coreldraw/odm/2003">
 <defs>
  <style type="text/css">
   <![CDATA[
    .fil0 {fill:#45F8FA}
   ]]>
  </style>
 </defs>
 <g id="Слой_x0020_1">
  <metadata id="CorelCorpID_0Corel-Layer"/>
  <path class="fil0" d="M0.0712 0.0564c-0.0013,0.0013 -0.0031,0.0032 -0.0059,0.0064 -0.0029,0.0032 -0.0069,0.0078 -0.0102,0.0125 -0.0033,0.0046 -0.0058,0.0092 -0.009,0.015 -0.0032,0.0058 -0.0072,0.0127 -0.0097,0.0174 -0.0025,0.0047 -0.0036,0.0071 -0.0049,0.0083 -0.0013,0.0012 -0.0028,0.0012 -0.0041,0.0008 -0.0013,-0.0004 -0.0024,-0.0013 -0.0025,-0.0029 -0.0001,-0.0015 0.0008,-0.0037 0.0021,-0.0066 0.0013,-0.0029 0.003,-0.0066 0.0049,-0.0103 0.0019,-0.0038 0.0039,-0.0076 0.0051,-0.0102 0.0012,-0.0026 0.0016,-0.0038 0.0017,-0.005 0,-0.0012 -0.0003,-0.0023 -0.0009,-0.0027 -0.0006,-0.0004 -0.0015,-0.0001 -0.0025,0.001 -0.001,0.0011 -0.0022,0.003 -0.0037,0.0058 -0.0015,0.0028 -0.0032,0.0065 -0.0051,0.0104 -0.002,0.0039 -0.0042,0.008 -0.0057,0.0105 -0.0015,0.0025 -0.0023,0.0034 -0.0032,0.0039 -0.0009,0.0005 -0.0019,0.0007 -0.0028,0.0004 -0.0009,-0.0003 -0.0016,-0.0011 -0.0016,-0.0026 -0.0001,-0.0015 0.0006,-0.0035 0.0031,-0.0094 0.0026,-0.0059 0.0071,-0.0156 0.0094,-0.0206 0.0023,-0.005 0.0024,-0.0054 0.0022,-0.0059 -0.0002,-0.0004 -0.0007,-0.001 -0.0013,-0.0011 -0.0005,-0.0001 -0.0011,0.0001 -0.0017,0.0004 -0.0006,0.0003 -0.0014,0.0007 -0.0047,0.0065 -0.0034,0.0058 -0.0094,0.0171 -0.0128,0.0228 -0.0034,0.0056 -0.004,0.0056 -0.0048,0.0054 -0.0008,-0.0003 -0.0016,-0.0008 -0.0022,-0.0019 -0.0006,-0.0011 -0.001,-0.0026 0.0025,-0.0106 0.0035,-0.008 0.0109,-0.0223 0.0149,-0.0301 0.004,-0.0077 0.0046,-0.0089 0.0066,-0.0116 0.002,-0.0027 0.0054,-0.007 0.0088,-0.0107 0.0034,-0.0037 0.0067,-0.0069 0.0089,-0.0092 0.0023,-0.0022 0.0035,-0.0035 0.0055,-0.0053 0.002,-0.0018 0.0048,-0.004 0.0076,-0.0059 0.0029,-0.0019 0.0058,-0.0036 0.0083,-0.0049 0.0025,-0.0014 0.0046,-0.0024 0.0065,-0.0033 0.0019,-0.0009 0.0035,-0.0016 0.0076,-0.0028 0.0041,-0.0012 0.0106,-0.0029 0.0183,-0.0045 0.0078,-0.0016 0.0168,-0.0033 0.0245,-0.0046 0.0077,-0.0013 0.014,-0.0024 0.0167,0.0017 0.0027,0.0041 0.0019,0.0133 0.0015,0.0194 -0.0004,0.0061 -0.0002,0.0092 -0.0091,0.013 -0.0088,0.0038 -0.0267,0.0084 -0.0374,0.0116 -0.0107,0.0032 -0.0143,0.0049 -0.0166,0.0062 -0.0022,0.0013 -0.0031,0.0021 -0.0044,0.0034z"/>
 </g>
</svg>
