<svg width="160" height="160" viewBox="0 0 160 160" fill="none" xmlns="http://www.w3.org/2000/svg">
<path d="M128 21.3333H32C26.1066 21.3333 21.3333 26.1067 21.3333 32V128C21.3333 133.893 26.1066 138.667 32 138.667H128C133.893 138.667 138.667 133.893 138.667 128V32C138.667 26.1067 133.888 21.3333 128 21.3333ZM121.008 71.8613C120.315 71.9253 119.616 71.968 118.912 71.968C110.939 71.968 103.931 67.872 99.8506 61.6693C99.8506 77.9307 99.8506 96.4373 99.8506 96.7467C99.8506 111.067 88.24 122.672 73.9253 122.672C59.6106 122.667 48 111.056 48 96.7413C48 82.4213 59.6106 70.816 73.9253 70.816C74.4693 70.816 74.9973 70.864 75.5253 70.896V83.6747C74.992 83.6107 74.4746 83.5147 73.9253 83.5147C66.6186 83.5147 60.6933 89.44 60.6933 96.7467C60.6933 104.053 66.6133 109.979 73.9253 109.979C81.2373 109.979 87.6906 104.219 87.6906 96.912C87.6906 96.6187 87.8186 37.3387 87.8186 37.3387H100.027C101.173 48.256 109.989 56.8747 121.008 57.664V71.8613Z" fill="white"/>
</svg>
