<svg width="314" height="79" viewBox="0 0 314 79" fill="none" xmlns="http://www.w3.org/2000/svg">
<g clip-path="url(#clip0_1218_101)">
<path fill-rule="evenodd" clip-rule="evenodd" d="M129.439 60.4169C129.439 61.4012 127.962 62.8777 127.47 63.3699C126.978 63.8621 125.501 64.8464 125.009 65.3386C122.548 66.3229 120.088 67.3072 117.135 67.7994C96.4638 68.2915 94.4952 42.699 109.752 36.3009C114.674 34.3323 121.564 35.3166 125.501 38.2696C128.947 40.7304 131.407 38.2696 130.915 36.7931C130.915 35.8088 128.454 33.348 127.47 32.8558C126.978 32.3636 126.486 32.3636 125.994 31.8715C120.58 29.9028 115.658 28.4263 109.752 30.395C96.956 34.3323 90.5579 49.0972 96.4638 61.4012C96.956 62.3856 97.4482 63.3699 97.9403 64.3542C98.9246 65.3385 99.4168 66.3229 100.401 66.815C100.893 67.3072 101.385 67.7994 101.385 68.2915C101.878 68.2915 102.37 68.7837 102.862 69.2758C105.815 71.2445 109.26 72.721 113.197 73.2132C121.072 74.1975 129.931 70.7523 133.868 64.8464C135.345 62.3856 139.282 55.4953 133.868 55.4953C132.392 55.0031 130.423 55.4953 128.947 55.4953C126.486 55.4953 111.229 55.0031 109.752 55.4953C108.276 55.9874 107.784 56.4796 107.784 57.9561C107.784 59.9248 108.276 60.4169 110.244 60.4169C113.69 60.4169 127.47 60.4169 129.439 60.4169Z" fill="#FEFEFE"/>
<path fill-rule="evenodd" clip-rule="evenodd" d="M212.614 46.6364C212.614 47.1286 212.614 66.8151 212.614 68.7837C212.614 73.7054 214.091 73.2132 219.505 73.2132C220.981 73.2132 240.176 73.2132 241.652 73.2132C243.129 72.7211 244.113 71.7367 243.621 69.7681C243.621 67.7994 241.652 68.2916 239.683 68.2916C237.223 68.2916 218.52 68.2916 217.536 68.2916V67.7994C217.536 66.8151 217.536 47.6207 217.536 47.1286C219.013 47.1286 236.238 47.1286 238.699 47.1286C241.652 47.1286 243.621 47.6207 243.621 44.6678C244.113 41.2226 241.652 41.7148 239.191 41.7148C236.238 41.7148 219.013 41.7148 217.536 41.7148C217.536 41.2226 217.536 36.7932 217.536 35.8088C218.52 35.8088 237.715 35.8088 239.191 35.8088C241.652 35.8088 244.605 36.301 244.113 32.3637C244.113 31.3794 243.621 30.8872 242.636 30.8872C241.16 30.395 223.934 30.8872 220.981 30.8872C217.044 30.8872 212.614 29.9029 212.614 33.348C212.122 43.1913 214.091 41.7148 210.154 41.7148C207.693 42.2069 207.201 46.6364 211.138 46.6364C211.63 46.6364 211.63 46.6364 211.63 46.6364C212.614 46.6364 212.122 46.6364 212.614 46.6364Z" fill="#FEFEFE"/>
<path fill-rule="evenodd" clip-rule="evenodd" d="M140.759 41.7148C139.774 41.7148 138.79 41.7148 137.806 42.2069C137.313 42.2069 136.329 43.1913 136.329 44.1756C136.329 45.1599 137.313 46.1442 137.806 46.1442C138.79 46.6364 139.774 46.6364 140.759 46.6364C141.251 47.6207 140.759 66.3229 140.759 68.7837C140.759 73.7054 142.235 73.2132 147.649 73.2132C149.125 73.2132 168.32 73.2132 169.796 73.2132C171.765 72.7211 172.257 72.2289 172.257 70.2602C172.257 67.7994 170.288 68.2916 168.32 68.2916C160.937 68.2916 153.063 68.2916 146.172 68.2916C145.68 67.3073 145.68 49.0972 146.172 47.1286C152.57 47.1286 160.445 47.1286 167.335 47.1286C169.796 47.1286 171.765 47.6207 172.257 44.6678C172.257 41.2226 170.288 41.7148 167.828 41.7148C160.937 41.7148 152.078 42.2069 146.172 41.7148C145.68 41.2226 145.68 36.7932 146.172 35.8088C153.063 35.8088 161.429 35.8088 168.812 35.8088C170.288 35.8088 171.765 35.8088 172.257 34.3323C172.749 33.348 172.257 31.3794 171.273 30.8872C170.288 30.395 150.602 30.8872 148.141 30.8872C145.68 30.8872 141.743 29.9029 141.251 32.8558C140.266 34.8245 141.251 40.2383 140.759 41.7148Z" fill="#FEFEFE"/>
<path fill-rule="evenodd" clip-rule="evenodd" d="M54.1379 49.0974C54.1379 49.5895 53.1536 50.5738 52.6614 50.5738L50.2006 53.0347C50.2006 53.5268 49.7084 54.019 49.7084 54.019C48.7241 55.0033 48.7241 55.4955 47.7398 55.9876L45.279 58.4485C43.8025 60.4171 38.8808 64.8466 38.3887 66.3231C37.4043 66.8152 28.5454 75.6742 28.5454 76.1663C29.0376 76.6585 38.8808 79.1193 39.373 78.6271L41.3416 76.6585L50.6927 67.3074C52.1692 65.8309 53.6457 64.3544 55.1222 62.8779L63.9811 54.019C64.9655 53.0347 68.4106 49.5895 68.4106 49.0974C68.4106 48.6052 56.1065 36.3011 54.6301 35.3168C53.1536 33.3481 53.6457 33.8403 50.2006 33.8403C46.7554 33.8403 42.8181 33.8403 38.8808 33.3481C39.373 34.3325 40.3573 35.3168 40.8495 35.809L46.7554 41.2228C47.7398 42.6992 54.1379 48.113 54.1379 49.0974Z" fill="#FEFEFE"/>
<path fill-rule="evenodd" clip-rule="evenodd" d="M0 49.5893C0.984326 50.0814 2.95298 52.5423 3.44514 53.0344L11.3197 60.4169L18.21 53.5266L14.7649 50.0814C15.2571 49.0971 20.6708 44.1755 21.6552 43.1912L28.5455 35.8087C30.0219 34.8244 41.8339 23.0125 42.326 22.5203C41.8339 21.536 40.3574 20.5517 39.373 19.5673C38.8809 19.0752 38.8809 18.583 37.4044 18.583C33.4671 18.583 28.5455 19.0752 24.116 18.583C24.6082 20.0595 26.0846 21.0438 27.069 22.5203C26.5768 23.0125 8.36677 41.2225 6.89028 42.699C5.41379 43.6833 4.42947 44.6676 3.44514 46.1441C2.95298 46.6363 0.492163 49.0971 0 49.0971L0 49.5893Z" fill="#FEFEFE"/>
<path fill-rule="evenodd" clip-rule="evenodd" d="M262.815 35.3166C266.26 34.8244 270.198 36.3009 272.658 38.7617C273.643 39.2539 274.135 40.2382 275.611 40.2382C279.549 41.2226 279.549 38.2696 279.057 37.2853C278.072 36.7931 276.104 34.8244 275.119 34.3323C270.198 30.8871 263.799 28.9185 257.401 31.3793C253.956 33.348 249.527 36.7931 248.542 40.2382C247.066 46.6364 250.019 50.5737 254.448 52.0501C256.909 53.5266 264.292 54.511 268.721 55.4953C271.182 56.4796 273.643 56.9718 274.627 58.4483C276.104 60.4169 276.104 63.8621 274.627 65.3386C273.151 66.815 270.69 67.7994 268.721 68.7837C265.768 69.2759 263.307 69.2759 260.847 68.7837C257.401 67.7994 253.956 66.3229 251.495 64.3542C250.511 63.3699 248.05 60.4169 246.082 63.8621C245.097 65.3385 246.574 66.3229 247.066 66.815C248.542 68.2915 250.019 69.2758 251.988 70.7523C255.433 73.2132 261.831 74.6896 266.752 74.1975C270.69 73.7053 273.643 72.2288 276.596 70.2602C278.564 69.2759 277.58 69.768 278.564 68.7837C282.009 65.3385 281.517 57.9561 278.564 55.0031C274.135 50.5737 264.292 49.5893 258.386 48.1128C255.925 47.6207 253.956 46.6364 253.464 44.1755C253.464 42.699 253.956 41.2226 254.448 40.2382C256.417 37.7774 258.878 35.8088 262.815 35.3166Z" fill="#FEFEFE"/>
<path fill-rule="evenodd" clip-rule="evenodd" d="M176.687 55.4953C175.21 55.9875 172.257 55.0032 172.257 57.9562C171.765 58.9405 172.257 59.9248 173.241 60.417C174.718 60.9091 176.194 60.417 176.687 60.9091C177.179 61.4013 176.194 70.7524 177.179 72.2289C178.163 74.1975 180.624 74.1975 181.608 72.2289C182.592 70.7524 181.608 62.8778 182.1 60.417C187.022 60.417 197.357 60.417 202.771 60.417C205.232 60.417 207.693 60.9091 207.693 57.9562C207.693 55.4953 205.724 55.4953 203.263 55.4953C200.31 55.4953 183.085 55.9875 182.1 55.4953V35.8088C185.545 35.3167 189.483 35.8088 192.928 35.8088C196.373 35.8088 200.31 35.8088 203.755 35.8088C205.724 35.8088 207.201 35.8088 208.185 34.3323C209.169 32.8558 208.185 31.3794 206.708 30.8872C205.232 30.395 188.006 30.8872 185.053 30.8872C182.592 30.8872 177.179 29.9029 176.687 33.8402C176.687 39.7461 177.179 51.0659 176.687 55.4953Z" fill="#FEFEFE"/>
<path fill-rule="evenodd" clip-rule="evenodd" d="M28.5457 63.3701C29.0378 62.3858 36.4203 55.0034 36.9124 54.5112L41.3419 50.5739C42.3262 49.0974 44.2949 47.6209 45.2792 46.1444C44.2949 45.1601 41.3419 41.715 39.8654 40.7306C37.8967 38.2698 38.8811 38.2698 36.4203 40.2385L26.0848 51.0661C24.1162 53.0347 15.7494 61.4015 13.7808 62.878C14.2729 63.8623 24.6083 73.7056 25.1005 74.1977C25.5927 73.7056 26.577 72.7212 27.0692 72.2291C28.5457 70.7526 30.0221 68.7839 31.9908 67.3074C31.4986 66.3231 30.5143 65.8309 30.0221 65.3388C29.53 64.3545 29.0378 63.8623 28.5457 63.3701Z" fill="#FEFEFE"/>
<path fill-rule="evenodd" clip-rule="evenodd" d="M314 32.8559C313.508 32.3637 313.508 31.8715 312.523 31.3794C311.047 30.8872 291.853 30.8872 290.376 30.8872C288.407 30.8872 285.454 30.8872 283.978 31.3794C282.994 32.3637 282.009 34.3323 283.486 35.3167C284.962 36.7932 292.345 35.8088 295.298 36.301C295.79 37.7775 295.298 53.0345 295.298 56.4797C295.298 59.9248 295.298 67.7994 295.298 71.2446C295.79 74.1976 300.219 75.1819 300.219 71.2446C300.219 65.8308 300.219 37.7775 300.219 36.301C302.68 35.8088 309.57 36.301 312.031 35.8088C313.508 35.8088 313.016 35.3167 314 34.3323V32.8559Z" fill="#FEFEFE"/>
<path fill-rule="evenodd" clip-rule="evenodd" d="M39.373 0.86519C38.8809 0.86519 38.8809 1.35735 38.3887 1.84952C36.9122 3.326 35.9279 5.29466 36.9122 7.26331C36.9122 7.75547 37.4044 8.24764 37.4044 9.23196C37.8965 10.2163 37.4044 10.7085 36.9122 11.2006C34.4514 17.1066 39.373 12.1849 39.8652 11.2006C42.326 7.26331 37.4044 7.75547 39.8652 3.326C39.8652 2.83384 41.8338 -0.611299 39.373 0.86519Z" fill="#FEFEFE"/>
<path fill-rule="evenodd" clip-rule="evenodd" d="M31.0063 13.6614C32.4828 14.1536 36.4201 10.7085 35.4358 8.24765C34.9437 7.75549 33.4672 6.77117 33.9593 4.31035C34.4515 3.32602 35.4358 1.84954 35.4358 0.373047C34.4515 0.373047 33.4672 1.35737 32.4828 2.3417C31.4985 3.81819 31.0063 4.31035 31.4985 6.279C31.4985 8.24765 32.975 8.24766 32.4828 10.2163C31.9907 11.2006 31.0063 12.6771 31.0063 13.6614Z" fill="#FEFEFE"/>
<path fill-rule="evenodd" clip-rule="evenodd" d="M26.0848 13.6614C27.5613 14.1536 31.4986 10.2163 30.0221 8.24765C29.0378 7.26333 28.0535 6.279 29.0378 4.31035C29.53 3.32602 30.5143 1.35737 30.0221 0.373047C29.0378 0.373047 29.0378 0.86521 28.5456 1.35737C28.0535 1.84954 27.5613 1.84954 27.5613 2.3417C24.1162 6.279 27.5613 7.75549 27.0691 10.2163C27.0691 11.2006 25.5927 12.6771 26.0848 13.6614Z" fill="#FEFEFE"/>
</g>
<defs>
<clipPath id="clip0_1218_101">
<rect width="314" height="79" fill="white"/>
</clipPath>
</defs>
</svg>
