<svg width="186" height="84" viewBox="0 0 186 84" fill="none" xmlns="http://www.w3.org/2000/svg">
<g clip-path="url(#clip0_1218_116)">
<path fill-rule="evenodd" clip-rule="evenodd" d="M48.8706 23.3998C53.9765 22.6704 56.1647 25.588 56.8941 28.5057C59.0824 34.3409 59.0824 48.1998 57.6235 54.0351C56.8941 57.6821 54.7059 60.5998 51.0588 61.3292C46.6824 61.3292 43.7647 59.1409 43.0353 55.4939C41.5765 51.8468 41.5765 47.4704 41.5765 43.0939C41.5765 39.4468 41.5765 33.6115 42.3059 29.9645C43.0353 26.3174 45.2235 23.3998 48.8706 23.3998ZM99.9294 43.0939C99.9294 36.5292 99.2 29.2351 97.0118 23.3998C95.5529 20.4821 93.3647 16.8351 91.1765 14.6468L89.7177 13.188C89.7177 12.4586 87.5294 10.9998 86.8 10.2704C76.5882 2.24683 64.1882 0.0585938 51.0588 0.0585938C38.6588 0.0585938 24.8 1.51742 14.5882 8.81153C13.8588 9.54095 13.1294 9.54095 12.4 10.2704C11.6706 10.9998 9.48236 13.188 8.75295 13.9174C7.29412 15.3762 7.29412 16.1057 5.8353 17.5645C5.10589 19.0233 4.37648 20.4821 3.64706 21.2115C-1.45882 32.1527 -0.729406 48.9292 3.64706 59.8704C7.29412 68.6233 13.1294 73.7292 20.4235 78.1057C25.5294 81.0233 33.5529 83.2115 40.1177 83.9409C40.8471 83.9409 41.5765 83.2115 42.3059 83.2115C43.0353 82.4821 44.4941 81.7527 45.9529 81.0233L81.6941 59.8704C84.6118 58.4115 86.8 56.9527 88.9882 55.4939L96.2824 51.1174C97.0118 50.388 97.7412 50.388 97.7412 50.388C99.2 48.9292 99.2 49.6586 99.2 48.1998C99.9294 46.7409 99.9294 45.2821 99.9294 43.0939Z" fill="#FEFEFE"/>
<path fill-rule="evenodd" clip-rule="evenodd" d="M102.118 82.4824C102.847 82.4824 105.035 82.4824 105.765 82.4824C107.953 82.4824 107.953 82.4824 109.412 81.753L114.518 78.1059C115.976 77.3765 117.435 75.9177 119.624 75.1882C121.082 73.7294 122.541 73 124.729 71.5412L129.106 68.6235C132.024 67.1647 134.212 65.7059 137.129 63.5177L139.318 62.0588C140.776 61.3294 142.965 59.8706 144.424 59.1412C148.071 56.953 150.988 54.7647 154.635 52.5765C159.012 49.6588 162.659 46.7412 167.035 44.553C169.224 43.0941 172.141 40.9059 174.329 39.4471L184.541 32.8824V2.24707C183.812 2.24707 183.082 2.24707 183.082 2.97648L168.494 11C167.035 11.7294 166.306 12.4588 165.576 13.1882C159.012 16.8353 152.447 21.2118 145.882 24.1294C141.506 27.0471 137.129 29.2353 132.753 32.153C129.106 34.3412 124.729 37.2588 120.353 39.4471C118.165 40.9059 115.976 42.3647 113.788 43.0941C110.141 45.2824 106.494 47.4706 102.847 49.6588C101.388 50.3882 102.118 50.3882 102.118 51.8471V72.2706C102.118 73.7294 102.118 81.753 102.118 82.4824Z" fill="#FEFEFE"/>
<path fill-rule="evenodd" clip-rule="evenodd" d="M180.165 2.24703C173.6 1.51762 167.035 2.24703 160.471 2.24703C145.153 2.24703 129.106 2.24703 113.059 2.24703C111.6 2.24703 104.306 1.51762 103.576 2.24703C103.576 3.70586 103.576 8.08233 103.576 9.54115V24.8588C103.576 24.8588 104.306 24.8588 105.035 24.8588C116.706 24.8588 128.376 24.8588 139.318 24.8588C140.776 24.8588 140.776 24.8588 141.506 24.8588C144.423 22.6706 147.341 21.2117 150.988 19.0235C153.176 17.5647 156.094 16.1059 158.282 14.647C159.012 13.9176 159.741 13.9176 160.471 13.1882C161.929 12.4588 164.118 11.7294 165.576 10.2706L175.059 5.16468C175.059 4.43527 179.435 2.24703 180.165 2.24703Z" fill="#FEFEFE"/>
<path fill-rule="evenodd" clip-rule="evenodd" d="M186 59.1411C185.271 59.1411 156.824 59.1411 153.906 59.1411C152.447 59.1411 152.447 59.1411 150.988 59.8705C148.8 61.3293 146.612 62.7882 144.424 64.247C141.506 65.7058 138.588 67.8941 135.671 70.0823L123.271 78.1058C121.812 78.8352 120.353 79.5646 119.624 80.2941L115.977 82.4823H186C186 80.2941 186 78.1058 186 76.647C186 74.4588 186 72.9999 186 70.8117C186 67.1646 186 63.5176 186 59.8705V59.1411Z" fill="#FEFEFE"/>
<path fill-rule="evenodd" clip-rule="evenodd" d="M44.4941 83.9409C45.953 83.9409 48.1412 83.9409 49.6 83.9409C51.7883 83.9409 53.2471 83.9409 55.4353 83.9409C64.1883 83.2115 73.6706 81.7526 80.9647 77.3762L83.153 75.9173L83.8824 75.1879C84.6118 75.1879 84.6118 75.1879 84.6118 74.4585L86.8 72.9997C87.5294 72.2703 88.2589 72.2703 88.2589 71.5409C88.9883 71.5409 88.9883 71.5409 88.9883 70.8115C89.7177 70.8115 89.7177 70.0821 90.4471 70.0821C94.0941 64.9762 97.0118 59.1409 98.4706 52.5762C98.4706 52.5762 88.9883 57.6821 88.2589 58.4115L75.1294 66.435C71.4824 67.8938 67.8353 70.0821 64.9177 72.2703C61.2706 73.7291 57.6236 75.9174 54.7059 78.1056C53.2471 78.835 44.4941 83.9409 44.4941 83.9409Z" fill="#FEFEFE"/>
</g>
<defs>
<clipPath id="clip0_1218_116">
<rect width="186" height="84" fill="white"/>
</clipPath>
</defs>
</svg>
