<svg width="218" height="74" viewBox="0 0 218 74" fill="none" xmlns="http://www.w3.org/2000/svg">
<path d="M180.184 14.1887L40.8343 4.14359C21.0367 2.71647 4.68563 14.2979 3.60339 29.28C2.52115 44.2621 17.0383 58.0686 36.8359 59.4958L176.186 69.5408C195.983 70.968 212.334 59.3865 213.416 44.4044C214.499 29.4223 199.982 15.6158 180.184 14.1887Z" stroke="#45F8FA" stroke-width="3"/>
<path d="M33.6058 28.1046H52.4235V43.3079H47.7778V31.7905H38.2413V43.3079H33.6058V28.1046ZM60.4183 43.4508C59.4994 43.4508 58.6995 43.3827 58.0188 43.2466C57.345 43.1037 56.7868 42.879 56.3443 42.5727C55.9087 42.2664 55.582 41.8648 55.3641 41.3679C55.1531 40.8642 55.0476 40.2413 55.0476 39.4994V36.5792C55.0476 35.8236 55.1395 35.1804 55.3233 34.6494C55.5139 34.1185 55.8168 33.6897 56.232 33.3629C56.6541 33.0362 57.2054 32.798 57.8861 32.6482C58.5668 32.4916 59.4041 32.4134 60.3979 32.4134H64.288C65.2342 32.4134 66.0442 32.4916 66.7181 32.6482C67.3988 32.798 67.9536 33.0328 68.3824 33.3527C68.818 33.6727 69.1346 34.0913 69.332 34.6086C69.5362 35.1259 69.6383 35.7386 69.6383 36.4465V39.4381C69.6383 40.1937 69.5328 40.8301 69.3218 41.3475C69.1175 41.858 68.7976 42.2698 68.362 42.5829C67.9331 42.896 67.3784 43.1207 66.6977 43.2568C66.0238 43.3861 65.2206 43.4508 64.288 43.4508H60.4183ZM63.2568 40.5511C64.1349 40.5511 64.7713 40.4149 65.1661 40.1426C65.5677 39.8704 65.7685 39.3701 65.7685 38.6417V37.2225C65.7685 36.5145 65.5711 36.021 65.1763 35.742C64.7883 35.4629 64.1485 35.3233 63.2568 35.3233H61.4393C60.9696 35.3233 60.5714 35.354 60.2447 35.4152C59.9248 35.4765 59.6627 35.5854 59.4585 35.742C59.2611 35.8917 59.1182 36.0925 59.0297 36.3444C58.948 36.5962 58.9071 36.9093 58.9071 37.2837V38.6621C58.9071 39.3769 59.1045 39.8704 59.4994 40.1426C59.901 40.4149 60.5476 40.5511 61.4393 40.5511H63.2568ZM77.1123 43.4508C76.1729 43.4508 75.3731 43.3827 74.7128 43.2466C74.0526 43.1037 73.508 42.8756 73.0792 42.5625C72.6571 42.2494 72.344 41.841 72.1398 41.3373C71.9356 40.8267 71.8335 40.2005 71.8335 39.4585V39.2748C71.8335 39.2611 71.8403 39.2543 71.8539 39.2543H75.5807V39.4381C75.5807 39.7172 75.6182 39.9452 75.693 40.1222C75.7747 40.2924 75.9075 40.4251 76.0912 40.5204C76.2818 40.6089 76.5337 40.6702 76.8468 40.7042C77.1599 40.7382 77.5479 40.7553 78.0108 40.7553H80.6247C80.788 40.7553 80.9582 40.7519 81.1352 40.7451C81.319 40.7382 81.4823 40.7076 81.6253 40.6532C81.775 40.5987 81.8942 40.517 81.9826 40.4081C82.0779 40.2924 82.1256 40.129 82.1256 39.918C82.1256 39.4347 81.8669 39.1931 81.3496 39.1931H77.3573V36.6405H81.0637C81.5334 36.6405 81.7682 36.4022 81.7682 35.9257C81.7682 35.7147 81.7308 35.5514 81.6559 35.4356C81.581 35.3199 81.4755 35.2348 81.3394 35.1804C81.2101 35.1191 81.0569 35.0851 80.8799 35.0783C80.7097 35.0715 80.526 35.0681 80.3286 35.0681H77.2757C76.6903 35.0681 76.275 35.1566 76.03 35.3335C75.7849 35.5037 75.6624 35.7726 75.6624 36.1402V36.3648H72.0071V36.0891C72.0071 35.2995 72.1568 34.6631 72.4563 34.1798C72.7558 33.6965 73.1472 33.3255 73.6305 33.0668C74.1206 32.8014 74.672 32.6278 75.2846 32.5461C75.8972 32.4576 76.5269 32.4134 77.1735 32.4134H80.8289C81.4279 32.4134 82.0133 32.4372 82.5851 32.4848C83.1568 32.5325 83.6674 32.6618 84.1166 32.8728C84.5727 33.0839 84.9369 33.4004 85.2091 33.8224C85.4814 34.2376 85.6175 34.8128 85.6175 35.548C85.6175 36.1334 85.4848 36.6098 85.2193 36.9774C84.9539 37.3382 84.5489 37.6207 84.0043 37.8249C84.6918 37.9814 85.1921 38.2639 85.5052 38.6723C85.8183 39.074 85.9749 39.6083 85.9749 40.2754C85.9749 41.0309 85.8218 41.6231 85.5154 42.052C85.2091 42.474 84.8109 42.7905 84.3208 43.0015C83.8307 43.2058 83.2794 43.3317 82.6667 43.3793C82.0541 43.427 81.4415 43.4508 80.8289 43.4508H77.1123ZM88.5683 32.5563H98.2784C98.8774 32.5563 99.4186 32.5972 99.9019 32.6788C100.392 32.7537 100.811 32.9001 101.158 33.1179C101.512 33.3289 101.777 33.6318 101.954 34.0266C102.138 34.4146 102.23 34.9217 102.23 35.548C102.23 36.6643 101.699 37.4233 100.637 37.8249C101.236 37.9814 101.713 38.2537 102.066 38.6417C102.427 39.0229 102.608 39.547 102.608 40.2141C102.608 40.8267 102.526 41.3339 102.363 41.7355C102.206 42.1303 101.964 42.4434 101.638 42.6748C101.318 42.8994 100.913 43.0628 100.423 43.1649C99.9393 43.2602 99.3778 43.3079 98.7379 43.3079H88.5683V32.5563ZM97.625 36.6405C98.0878 36.6405 98.3193 36.3954 98.3193 35.9053C98.3193 35.6671 98.2546 35.4867 98.1253 35.3642C98.0028 35.2348 97.836 35.1702 97.625 35.1702H92.4381V36.6405H97.625ZM98.6358 39.8159C98.6358 39.564 98.5643 39.3735 98.4214 39.2441C98.2852 39.108 98.0981 39.0399 97.8598 39.0399H92.4381V40.6532H97.8598C98.3771 40.6532 98.6358 40.3741 98.6358 39.8159ZM110.184 43.4508C109.265 43.4508 108.465 43.3827 107.784 43.2466C107.11 43.1037 106.552 42.879 106.11 42.5727C105.674 42.2664 105.347 41.8648 105.13 41.3679C104.919 40.8642 104.813 40.2413 104.813 39.4994V36.5792C104.813 35.8236 104.905 35.1804 105.089 34.6494C105.279 34.1185 105.582 33.6897 105.997 33.3629C106.42 33.0362 106.971 32.798 107.652 32.6482C108.332 32.4916 109.17 32.4134 110.163 32.4134H114.053C115 32.4134 115.81 32.4916 116.484 32.6482C117.164 32.798 117.719 33.0328 118.148 33.3527C118.584 33.6727 118.9 34.0913 119.097 34.6086C119.302 35.1259 119.404 35.7386 119.404 36.4465V39.4381C119.404 40.1937 119.298 40.8301 119.087 41.3475C118.883 41.858 118.563 42.2698 118.127 42.5829C117.699 42.896 117.144 43.1207 116.463 43.2568C115.789 43.3861 114.986 43.4508 114.053 43.4508H110.184ZM113.022 40.5511C113.9 40.5511 114.537 40.4149 114.932 40.1426C115.333 39.8704 115.534 39.3701 115.534 38.6417V37.2225C115.534 36.5145 115.337 36.021 114.942 35.742C114.554 35.4629 113.914 35.3233 113.022 35.3233H111.205C110.735 35.3233 110.337 35.354 110.01 35.4152C109.69 35.4765 109.428 35.5854 109.224 35.742C109.027 35.8917 108.884 36.0925 108.795 36.3444C108.713 36.5962 108.673 36.9093 108.673 37.2837V38.6621C108.673 39.3769 108.87 39.8704 109.265 40.1426C109.666 40.4149 110.313 40.5511 111.205 40.5511H113.022ZM122.038 32.5563H125.908V36.3444H131.554V32.5563H135.424V43.3079H131.554V39.2748H125.908V43.3079H122.038V32.5563ZM138.416 32.5563H142.285V39.9997L147.809 32.5563H153.016V43.3079H149.147V35.9053L143.582 43.3079H138.416V32.5563ZM159.163 35.405H154.936V32.5563H167.25V35.405H163.033V43.3079H159.163V35.405ZM169.169 32.5563H173.039V35.8236H177.623C178.345 35.8236 178.978 35.8815 179.523 35.9972C180.067 36.1061 180.516 36.3001 180.87 36.5792C181.231 36.8583 181.497 37.2395 181.667 37.7228C181.844 38.1993 181.932 38.7983 181.932 39.5198C181.932 40.2618 181.844 40.8778 181.667 41.3679C181.497 41.8512 181.231 42.2358 180.87 42.5217C180.516 42.8076 180.067 43.0118 179.523 43.1343C178.978 43.25 178.345 43.3079 177.623 43.3079H169.169V32.5563ZM173.039 40.5511H177.082C177.681 40.5511 177.981 40.2277 177.981 39.5811C177.981 39.2067 177.909 38.9412 177.766 38.7847C177.63 38.6213 177.402 38.5396 177.082 38.5396H173.039V40.5511Z" fill="black"/>
</svg>
