<svg width="318" height="63" viewBox="0 0 318 63" fill="none" xmlns="http://www.w3.org/2000/svg">
<g clip-path="url(#clip0_1217_27)">
<path d="M151.939 31.9869L147.556 41.2396C149.991 40.2656 152.913 39.2916 155.348 37.8307C154.374 35.8828 153.4 33.9348 151.939 31.9869ZM143.173 43.6745C147.069 36.3697 150.965 29.065 154.861 21.7603L168.009 44.6485H159.731L156.322 39.7786L146.095 43.6745C144.634 44.1615 143.173 44.6485 143.173 44.6485C142.686 44.6485 142.686 44.6485 143.173 44.1615V43.6745Z" fill="#FEFEFE"/>
<path d="M207.455 35.8829C207.455 33.935 208.429 31.0131 209.403 28.5782C210.377 27.6042 211.351 26.6303 212.325 25.6563C212.812 24.6823 213.786 24.1953 214.76 23.7084C215.734 23.7084 216.708 23.7084 217.682 24.1953C217.682 24.1953 218.169 24.1953 218.169 24.6823C219.143 25.6563 219.63 27.6042 219.63 30.0391C219.63 32.4741 218.656 34.909 217.682 37.3439C216.708 38.8048 215.734 39.7788 215.247 40.7528C214.273 41.2397 213.299 42.2137 212.325 42.2137C211.351 42.7007 210.377 42.7007 209.89 42.2137C209.403 41.7267 208.916 41.7267 208.916 41.2397C207.942 40.2658 207.455 38.3178 207.455 35.8829ZM213.786 44.6486C217.682 44.6486 221.578 43.1877 224.499 41.2397C226.934 39.2918 228.882 36.3699 228.882 32.961C228.882 30.0391 226.934 27.1172 224.499 24.6823C221.578 22.7344 217.682 21.2734 213.786 21.2734C209.403 21.2734 205.507 22.7344 203.072 24.6823C200.15 27.1172 198.202 30.0391 198.202 32.961C198.202 36.3699 200.15 39.2918 203.072 41.2397C205.507 43.1877 209.403 44.6486 213.786 44.6486Z" fill="#FEFEFE"/>
<path d="M301.93 31.9869L297.06 41.2396C299.982 40.2656 302.904 39.2916 305.339 37.8307C304.365 35.8828 303.391 33.9348 301.93 31.9869ZM293.164 43.6745C297.06 36.3697 300.956 29.065 304.852 21.7603L318 44.6485H309.235L306.313 39.7786L296.086 43.6745C294.138 44.1615 293.164 44.6485 293.164 44.6485C292.677 44.6485 292.677 44.6485 293.164 44.1615V43.6745Z" fill="#FEFEFE"/>
<path d="M250.31 25.6563C247.875 23.2214 243.979 24.1953 240.57 24.6823V36.3699C241.544 36.3699 242.518 36.3699 243.492 36.3699C244.466 36.8569 245.44 36.8569 246.414 36.8569C247.875 36.8569 249.336 35.8829 250.31 34.909C251.284 33.935 252.257 31.9871 252.257 30.5261C252.257 28.5782 251.284 27.1172 250.31 25.6563ZM246.414 21.2734C250.31 21.2734 253.718 22.2474 256.64 23.7084C259.075 25.6563 261.023 27.6042 261.023 30.0391C261.023 32.4741 259.075 34.422 256.64 36.3699C254.205 37.8309 250.31 38.8048 246.414 38.8048C245.44 38.8048 243.979 38.8048 243.005 38.3178C242.518 38.3178 241.544 38.3178 240.57 37.8309C240.57 40.2658 240.57 42.2137 240.57 44.1616V44.6486H240.083H232.291H231.804V44.1616V31.5001V28.5782C232.291 26.6303 234.239 24.6823 236.674 23.2214C239.596 22.2474 242.518 21.2734 246.414 21.2734Z" fill="#FEFEFE"/>
<path d="M263.945 21.2734H272.224V32.961L284.398 21.2734H287.807L280.016 29.0652L288.781 44.6486H280.016L274.172 34.909L272.224 36.3699V44.6486H263.945V21.2734Z" fill="#FEFEFE"/>
<path d="M120.285 35.3959L127.59 21.2734L140.738 44.6486H131.973L124.668 31.9871L121.259 38.3178L117.363 45.6226L109.571 31.9871L102.267 44.6486H99.3447L112.006 21.2734H112.493L120.285 35.3959Z" fill="#FEFEFE"/>
<path d="M192.358 21.7603H195.767L187.976 30.039L196.254 44.6485H185.541L181.158 37.3437L174.34 44.6485H170.931L180.184 34.9088L172.392 21.7603H183.106C183.593 21.7603 183.593 21.7603 183.593 21.7603L186.515 27.6041L192.358 21.7603Z" fill="#FEFEFE"/>
<path fill-rule="evenodd" clip-rule="evenodd" d="M74.0214 30.039L74.9954 30.526C81.3262 35.3958 70.1256 40.2656 58.925 38.8047C49.6723 37.3437 46.2634 32.4739 54.0551 29.552C55.5161 29.065 58.438 28.578 60.3859 28.578C59.8989 29.065 59.4119 29.552 59.4119 29.552C58.438 30.526 58.438 31.0129 57.464 31.4999C56.49 32.4739 56.0031 32.4739 55.5161 33.9348C69.1516 31.0129 69.6386 16.8904 59.8989 14.4555C54.5421 12.9946 49.6723 15.4295 44.3155 15.9165C40.4196 16.4034 37.9847 15.4295 36.5237 13.9685C37.4977 12.9946 38.9587 12.5076 39.9326 12.0206C40.4196 12.0206 40.4196 12.0206 40.4196 12.0206C45.7764 15.4295 53.0812 12.0206 59.8989 12.5076C66.2297 12.9946 71.5865 16.4034 70.1256 23.7082C69.1516 29.552 64.2818 33.4479 59.8989 35.8828C64.7688 36.8567 71.0995 32.4739 74.0214 30.039ZM23.3752 32.9609C23.3752 25.6561 26.2971 19.8123 31.1669 14.9425C31.6539 14.4555 32.6279 13.4815 33.6018 12.5076C33.6018 12.5076 33.6018 12.0206 33.1149 11.5336C26.7841 16.4034 22.4012 24.1952 22.4012 32.9609C22.4012 33.9348 22.4012 34.9088 22.4012 36.3698C21.9142 35.3958 21.4273 34.4218 20.4533 33.9348C20.4533 33.4479 19.9663 32.9609 19.9663 32.4739C19.4793 31.9869 18.9923 31.0129 18.5054 30.526C18.9923 19.8123 25.8101 10.5596 35.0628 5.68981C35.0628 7.15076 35.5498 8.61171 36.5237 9.58568C35.5498 10.0727 35.0628 10.5596 34.0888 11.0466C34.5758 11.0466 34.5758 11.5336 35.0628 12.0206C36.0368 11.5336 37.0107 10.5596 37.9847 10.0727C37.0107 9.09869 36.0368 7.15076 36.0368 5.20283C36.5237 -0.640968 45.2894 -0.640968 47.7243 1.79395C44.8025 1.79395 41.3936 1.30696 40.4196 3.74188C42.8545 2.76791 45.7764 2.76791 48.6983 2.76791C53.5681 2.76791 58.438 3.74188 62.8208 6.1768C58.925 5.68981 55.5161 6.1768 52.1072 6.66378C51.1332 6.66378 50.1593 6.66378 48.6983 6.66378C46.2634 6.66378 43.8285 7.15076 41.3936 7.63775H40.9066C42.3675 8.61171 44.3155 9.09869 46.2634 8.61171C53.0812 8.12473 70.1256 2.28093 78.4043 13.9685C81.3262 17.8644 79.8652 22.2472 78.4043 25.1691C78.8913 27.6041 79.3783 30.039 79.3783 32.9609C79.3783 33.4479 79.3783 33.9348 79.3783 34.4218C79.3783 34.9088 79.3783 35.3958 79.3783 36.3698C80.8392 34.4218 80.8392 33.4478 82.3002 31.9869C88.144 26.1431 93.5008 31.0129 91.5528 37.3437C89.1179 44.1615 78.8913 44.6485 77.9173 51.4662C74.0214 47.0834 82.7871 42.7005 83.7611 42.2136C92.0398 35.8828 88.6309 27.1171 81.3262 37.8307C76.9433 44.6485 77.4303 51.9532 68.1776 56.3361C67.6907 56.3361 67.6907 56.3361 67.2037 56.823C62.3338 60.7189 55.5161 62.6668 48.6983 62.6668C40.9066 62.6668 33.6018 59.7449 28.245 55.3621C27.2711 54.8751 25.8101 53.9011 24.8361 53.4142C20.4533 50.4923 18.9923 44.1615 17.5314 40.7526C16.5574 38.3177 15.5835 37.8307 16.5574 35.8828H16.0704C13.6355 34.9088 10.2266 25.6561 3.89587 28.578C1.94793 30.039 1.46095 31.4999 0 29.065C1.94793 28.091 3.89587 26.1431 5.8438 26.1431C7.30475 25.6561 8.7657 26.1431 10.2266 26.6301C13.1485 27.6041 14.6095 30.526 16.0704 31.9869C17.0444 33.4478 17.0444 33.9348 17.0444 34.4218C17.5314 34.4218 17.0444 33.9348 18.0184 33.9348C17.5314 31.9869 16.0704 31.4999 15.0965 29.552C17.5314 30.526 20.9403 33.4478 18.5054 34.4218C20.9403 34.9088 21.4273 36.3697 22.4012 38.3177C23.3752 40.2656 22.8882 40.7526 22.4012 43.6745C23.3752 42.2135 23.8622 40.7526 24.3492 39.7786C23.8622 37.3437 23.3752 34.9088 23.3752 32.9609ZM26.7841 37.3437C27.758 36.8567 28.732 36.3698 30.6799 35.8828L30.193 38.3177C31.6539 37.8307 33.1149 37.8307 34.0888 37.8307C32.1409 34.9088 30.193 31.0129 31.1669 28.091C33.1149 22.7342 38.4717 27.1171 40.4196 27.6041C41.3936 28.091 41.8806 28.091 41.8806 26.1431C41.8806 24.1952 40.4196 24.1952 39.4456 24.1952C39.9326 23.7082 42.8545 22.7342 43.3415 26.6301C43.3415 28.091 42.8545 29.552 42.3675 30.039C40.9066 31.0129 38.4717 29.065 36.5237 28.578C34.5758 28.578 33.6018 30.039 34.0888 33.4479C34.5758 35.3958 35.0628 36.8567 36.0368 38.3177C36.5237 38.3177 37.0107 38.8047 37.4977 38.8047C34.5758 35.8828 34.5758 30.526 36.5237 30.039C37.9847 30.039 39.4456 31.4999 40.9066 31.9869C42.8545 32.9609 43.3415 31.0129 43.8285 29.552C43.8285 31.4999 43.3415 32.9609 42.3675 33.4479C40.9066 34.9088 38.4717 32.4739 37.4977 33.4479C37.0107 33.4479 36.5237 33.9348 36.5237 34.9088C36.5237 35.8828 37.0107 36.8567 37.4977 37.8307C37.9847 38.3177 37.9847 38.3177 37.9847 38.8047C38.4717 39.2916 38.4717 39.2916 38.4717 39.7786C39.9326 40.7526 41.3936 41.7266 42.3675 43.1875C42.3675 41.2396 40.4196 39.2916 38.9587 38.3177C40.9066 38.8047 44.3155 42.2135 43.8285 44.1615C39.9326 47.0834 31.6539 42.7005 28.732 40.2656C30.193 41.7266 32.1409 43.1875 34.5758 44.1615L33.6018 47.5704L35.5498 44.6485L37.0107 45.1354L36.0368 48.5443C35.5498 50.0053 34.5758 50.4923 34.0888 51.9532C37.4977 50.4923 37.9847 49.5183 38.9587 47.5704L39.9326 46.1094H41.8806C41.8806 46.1094 41.8806 47.0834 41.3936 48.0573C39.4456 54.3881 33.1149 53.9011 27.2711 52.4402C28.732 52.9272 31.6539 55.3621 37.0107 53.9011C38.9587 53.4142 40.9066 52.4402 41.8806 50.4923C42.3675 50.0053 43.3415 46.5964 43.3415 46.1094C42.8545 48.5443 42.8545 49.5183 42.3675 50.0053C42.3675 51.4662 41.3936 52.4402 40.4196 53.4142C42.8545 54.3881 45.7764 55.3621 48.6983 55.3621C50.1593 55.3621 51.6202 54.8751 52.5942 54.8751C47.7243 51.4662 44.3155 45.6224 44.3155 40.2656C44.3155 40.2656 44.3155 39.7786 44.8025 40.7526V41.2396C44.8025 41.2396 45.2894 41.7266 45.2894 42.2136C45.2894 42.7005 45.7764 43.1875 46.2634 44.1615C46.7504 45.1354 47.7243 46.5964 48.6983 47.0834C60.3859 58.771 70.6126 46.5964 69.1516 43.1875C65.7427 40.2656 62.3338 41.2396 57.464 40.7526C36.5237 38.8047 43.8285 28.091 60.3859 28.091C61.3599 27.1171 61.8469 26.1431 61.8469 24.6822C61.8469 22.7342 59.8989 21.2733 58.438 20.7863C53.0812 18.3514 45.2894 22.7342 38.4717 18.3514C37.4977 17.8644 36.0368 16.4034 35.0628 14.9425C34.0888 15.4295 33.6018 16.4034 32.6279 16.8904C28.732 20.7863 26.2971 26.6301 26.2971 32.9609C26.2971 34.4218 26.2971 36.3698 26.7841 37.3437ZM36.5237 55.8491C37.0107 55.8491 37.4977 55.3621 37.9847 55.3621C41.3936 56.823 44.8024 57.797 48.6983 57.797C51.1332 57.797 53.5681 57.31 56.0031 56.3361C56.49 56.823 57.464 57.31 57.951 57.31C55.0291 58.284 52.1072 58.771 48.6983 58.771C44.3155 58.771 39.9326 57.797 36.5237 55.8491Z" fill="#FEFEFE"/>
</g>
<defs>
<clipPath id="clip0_1217_27">
<rect width="318" height="63" fill="white"/>
</clipPath>
</defs>
</svg>
