<svg width="352" height="70" viewBox="0 0 352 95" fill="none" xmlns="http://www.w3.org/2000/svg">
<g clip-path="url(#clip0_1218_124)">
<path d="M83.8685 41.0962V0.194824H73.1267V54.3169H85.9342L108.244 13.4155V54.3169H118.986V0.194824H106.178L83.8685 41.0962Z" fill="#FEFEFE"/>
<path d="M47.0986 54.3167H62.385V16.3073V8.04443L47.0986 54.3167Z" fill="#FEFEFE"/>
<path d="M21.4836 16.3073V54.3167H36.77L21.4836 8.04443V16.3073Z" fill="#FEFEFE"/>
<path d="M0 46.054L10.7418 54.3169V0.194824H0V46.054Z" fill="#FEFEFE"/>
<path d="M28.9202 0.194824L41.7277 41.0962H42.1408L54.9483 0.194824H28.9202Z" fill="#FEFEFE"/>
<path d="M145.427 0.194824H129.728V54.3169H140.47V34.0728H147.08C160.714 34.0728 165.671 24.1573 165.671 17.1338C165.671 13.8286 164.432 0.194824 145.427 0.194824ZM145.427 25.3967H140.47V8.87088H145.427C151.624 8.87088 154.103 12.5892 154.103 16.7206C154.103 20.8521 151.624 25.3967 145.427 25.3967Z" fill="#FEFEFE"/>
<path d="M212.77 54.3169H244.582V44.8145H223.925V30.7676H242.516V22.0915H223.925V9.69717H244.582V0.194824H212.77V54.3169Z" fill="#FEFEFE"/>
<path d="M274.329 24.5704L295.399 0.194824H283.831L264.413 23.331V0.194824H253.671V54.3169H264.413V27.4624L284.244 54.3169H297.465L274.329 24.5704Z" fill="#FEFEFE"/>
<path d="M170.629 9.69717H180.545V54.3169H191.286V9.69717H206.573V0.194824H164.432C167.737 3.08684 169.39 6.39201 170.629 9.69717Z" fill="#FEFEFE"/>
<path d="M150.798 77.8659V85.3026V87.3683V87.7814L156.995 77.8659H159.061V89.434H157.408V82.4106V81.1711L157.822 79.9317L151.211 89.434H149.146V77.8659H150.798ZM165.258 82.8237C167.324 82.8237 168.563 82.4106 168.563 81.1711C168.563 79.9317 167.324 79.1054 165.671 79.1054C165.258 79.1054 164.845 79.5185 164.432 79.5185C163.606 79.5185 163.192 79.9317 162.366 79.9317L161.953 78.6922C163.192 77.8659 164.432 77.8659 165.671 77.8659C167.324 77.8659 168.15 77.8659 168.977 78.6922C169.803 79.1054 170.216 79.9317 170.216 80.758C170.216 81.9974 169.39 82.8237 167.737 83.2368V83.65C168.976 83.65 169.39 84.0631 169.803 84.4763C170.216 84.8894 170.629 85.7157 170.629 86.542C170.629 87.3683 170.216 88.1946 169.39 89.0209C168.15 89.434 167.324 89.8472 165.671 89.8472C164.019 89.8472 162.779 89.434 161.54 89.0209V87.3683C163.192 88.1946 164.432 88.1946 165.671 88.1946C166.498 88.1946 167.324 88.1946 168.15 87.7814C168.563 87.3683 168.563 86.9551 168.563 86.1289C168.563 84.8894 167.737 84.4763 165.258 84.4763H164.019V82.8237H165.258ZM183.437 83.65C183.437 85.7157 183.023 86.9552 181.784 88.1946C180.958 89.434 179.718 89.8472 178.066 89.8472C176.826 89.8472 176 89.434 175.174 89.0209C174.347 88.6077 173.934 87.7814 173.521 86.9551C173.108 86.1289 172.695 84.8894 172.695 83.65C172.695 81.9974 173.108 80.3448 173.934 79.5185C175.174 78.2791 176.413 77.8659 178.066 77.8659C179.718 77.8659 180.958 78.2791 181.784 79.5185C183.023 80.3448 183.437 81.9974 183.437 83.65ZM174.347 83.65C174.347 85.3026 174.761 86.542 175.587 86.9551C176 87.7814 176.826 88.1946 178.066 88.1946C179.305 88.1946 180.131 87.7814 180.545 87.3683C181.371 86.542 181.371 85.3026 181.371 83.65C181.371 82.4106 181.371 81.1711 180.545 80.3448C180.131 79.5185 179.305 79.1054 178.066 79.1054C176.826 79.1054 176 79.5185 175.587 80.3448C174.761 81.1711 174.347 82.4106 174.347 83.65ZM185.915 82.8237C185.915 79.9317 186.329 78.2791 186.742 76.6265C187.568 75.3871 188.807 74.5608 190.46 74.1476C192.526 73.7345 194.178 73.3213 195.831 72.9082L196.244 74.5608C193.765 74.9739 192.113 75.3871 190.873 75.3871C190.047 75.8002 189.221 76.2134 188.394 77.0397C187.981 77.866 187.981 79.1054 187.568 80.758H187.981C188.394 79.9317 188.807 79.5185 189.634 79.5185C190.047 79.1054 190.873 78.6922 191.699 78.6922C193.352 78.6922 194.178 79.1054 195.005 80.3448C195.831 81.1711 196.244 82.4105 196.244 84.0631C196.244 85.7157 195.831 87.3683 195.005 88.1946C193.765 89.434 192.526 89.8472 190.873 89.8472C189.221 89.8472 187.981 89.0209 187.155 87.7814C186.329 86.542 185.915 84.8894 185.915 82.8237ZM191.286 88.1946C193.352 88.1946 194.592 86.9552 194.592 84.0631C194.592 81.5843 193.352 80.3448 191.286 80.3448C190.873 80.3448 190.46 80.3448 190.047 80.758C189.221 80.758 188.807 81.1711 188.394 81.5843C187.981 81.9974 187.981 82.4106 187.568 82.8237C187.568 84.4763 187.981 85.7157 188.394 86.9551C189.221 87.7814 190.047 88.1946 191.286 88.1946ZM204.507 89.8472C204.094 89.8472 203.268 89.8472 202.441 89.434C202.028 89.0209 201.615 88.6077 201.202 88.1946H200.789C201.202 88.6077 201.202 89.434 201.202 89.8472V94.8049H199.136V77.8659H200.789V79.5185H201.202C201.615 79.1054 202.028 78.6922 202.441 78.2791C203.268 77.8659 204.094 77.8659 204.507 77.8659C206.16 77.8659 207.399 78.2791 208.225 79.5185C209.052 80.3448 209.465 81.9974 209.465 83.65C209.465 85.7157 209.052 86.9552 208.225 88.1946C207.399 89.434 206.16 89.8472 204.507 89.8472ZM204.507 79.1054C203.268 79.1054 202.441 79.5185 202.028 80.3448C201.202 80.758 201.202 81.9974 201.202 83.2368V83.65C201.202 85.3026 201.202 86.542 202.028 87.3683C202.441 87.7814 203.268 88.1946 204.507 88.1946C205.333 88.1946 206.16 87.7814 206.986 86.9551C207.399 86.1289 207.812 85.3026 207.812 83.65C207.812 82.4106 207.399 81.1711 206.986 80.3448C206.16 79.5185 205.333 79.1054 204.507 79.1054ZM217.315 89.8472C215.662 89.8472 214.423 89.434 213.596 88.1946C212.357 87.3683 211.944 85.7157 211.944 84.0631C211.944 81.9974 212.357 80.3448 213.183 79.5185C214.423 78.2791 215.249 77.8659 216.901 77.8659C218.554 77.8659 219.793 78.2791 220.62 79.1054C221.446 80.3448 221.859 81.5843 221.859 82.8237V84.0631H213.596C213.596 85.3026 214.009 86.542 214.836 87.3683C215.249 87.7814 216.488 88.1946 217.315 88.1946C218.967 88.1946 219.793 88.1946 221.033 87.3683V89.0209C220.62 89.434 220.207 89.434 219.38 89.434C218.967 89.8472 218.141 89.8472 217.315 89.8472ZM216.901 79.1054C216.075 79.1054 215.249 79.5185 214.836 80.3448C214.009 80.758 214.009 81.5843 213.596 82.8237H219.793C219.793 81.5843 219.38 80.758 218.967 80.3448C218.554 79.5185 217.728 79.1054 216.901 79.1054ZM232.601 79.5185H228.883V89.434H226.817V79.5185H223.099V77.8659H232.601V79.5185ZM242.103 89.434L241.69 87.7814C240.864 88.6077 240.451 89.0209 239.624 89.434C239.211 89.8472 238.385 89.8472 237.559 89.8472C236.319 89.8472 235.493 89.434 235.08 89.0209C234.253 88.1946 233.84 87.3683 233.84 86.542C233.84 84.0631 235.906 82.8237 239.624 82.8237H241.69V81.9974C241.69 81.1711 241.277 80.3448 240.864 79.9317C240.451 79.5185 240.038 79.1054 239.211 79.1054C237.972 79.1054 237.146 79.5185 235.906 80.3448L235.08 78.6922C235.906 78.6922 236.319 78.2791 237.146 78.2791C237.972 77.8659 238.385 77.8659 239.211 77.8659C240.451 77.8659 241.69 78.2791 242.103 78.6922C242.93 79.5185 243.343 80.3448 243.343 81.5843V89.434H242.103ZM237.972 88.1946C239.211 88.1946 240.038 88.1946 240.451 87.3683C241.277 86.9551 241.277 86.1289 241.277 84.8894V84.0631H239.624C238.385 84.0631 237.146 84.0631 236.732 84.4763C235.906 84.8894 235.906 85.7157 235.906 86.542C235.906 86.9551 235.906 87.3683 236.319 87.7814C236.732 88.1946 237.146 88.1946 237.972 88.1946ZM247.474 89.434H245.408L248.714 84.8894C247.887 84.4763 247.061 84.0631 246.648 83.65C246.235 82.8237 245.822 82.4106 245.822 81.5843C245.822 80.3448 246.235 79.5185 247.061 79.1054C247.887 78.2791 248.714 77.8659 249.953 77.8659H255.324V89.434H253.258V84.8894H250.366L247.474 89.434ZM247.474 81.5843C247.474 82.8237 248.714 83.2368 250.366 83.2368H253.258V79.5185H250.366C248.3 79.5185 247.474 80.3448 247.474 81.5843ZM264 82.8237C264 79.9317 264.413 78.2791 264.826 76.6265C265.653 75.3871 266.892 74.5608 268.545 74.1476C270.61 73.7345 272.263 73.3213 273.915 72.9082L274.329 74.5608C271.85 74.9739 270.197 75.3871 268.958 75.3871C268.131 75.8002 267.305 76.2134 266.479 77.0397C266.066 77.866 266.066 79.1054 265.653 80.758H266.066C266.479 79.9317 266.892 79.5185 267.718 79.5185C268.131 79.1054 268.958 78.6922 269.784 78.6922C271.023 78.6922 272.263 79.1054 273.089 80.3448C273.915 81.1711 274.329 82.4105 274.329 84.0631C274.329 85.7157 273.915 87.3683 273.089 88.1946C271.85 89.434 270.61 89.8472 268.958 89.8472C267.305 89.8472 266.066 89.0209 265.239 87.7814C264.413 86.542 264 84.8894 264 82.8237ZM269.371 88.1946C271.437 88.1946 272.263 86.9552 272.263 84.0631C272.263 81.5843 271.437 80.3448 269.371 80.3448C268.958 80.3448 268.545 80.3448 268.131 80.758C267.305 80.758 266.892 81.1711 266.479 81.5843C266.066 81.9974 266.066 82.4106 265.653 82.8237C265.653 84.4763 266.066 85.7157 266.479 86.9551C267.305 87.7814 268.131 88.1946 269.371 88.1946ZM275.568 77.8659H277.221L280.113 84.4763C280.526 86.1289 280.939 87.3683 280.939 87.7814C281.352 87.3683 281.352 86.9551 281.765 86.1289C281.765 85.3026 283.005 82.4106 284.657 77.8659H286.31L281.352 91.0866C280.939 92.326 280.526 93.5655 279.699 93.9786C278.873 94.3918 278.047 94.8049 277.221 94.8049C276.807 94.8049 276.394 94.8049 275.568 94.3918V93.1523C275.981 93.1523 276.394 93.1523 276.807 93.1523C278.047 93.1523 278.873 92.7392 279.699 91.0866L280.113 89.434L275.568 77.8659ZM297.878 93.5655H296.225V89.434H287.962V93.5655H286.31V88.1946H287.136C288.376 86.9552 289.202 85.3026 289.615 83.65C290.028 81.9974 290.441 79.9317 290.441 77.8659H296.225V88.1946H297.878V93.5655ZM294.573 88.1946V79.5185H292.094C291.681 80.758 291.681 82.4105 290.854 84.0631C290.441 85.7157 290.028 86.9552 289.202 88.1946H294.573ZM298.291 77.8659H300.357L302.836 84.4763C303.249 86.1289 303.662 87.3683 303.662 87.7814H304.075C304.075 87.3683 304.075 86.9551 304.488 86.1289C304.901 85.3026 305.728 82.4106 307.38 77.8659H309.033L304.075 91.0866C303.662 92.326 303.249 93.5655 302.423 93.9786C302.009 94.3918 301.183 94.8049 299.944 94.8049C299.53 94.8049 299.117 94.8049 298.704 94.3918V93.1523C298.704 93.1523 299.53 93.1523 299.944 93.1523C301.183 93.1523 302.009 92.7392 302.423 91.0866L303.249 89.434L298.291 77.8659ZM319.775 88.1946H324.732V77.8659H326.798V88.1946H328.451V93.5655H326.385V89.434H311.099V77.8659H312.751V88.1946H318.122V77.8659H319.775V88.1946ZM335.474 89.8472C333.822 89.8472 332.169 89.434 331.343 88.1946C330.516 87.3683 329.69 85.7157 329.69 84.0631C329.69 81.9974 330.516 80.3448 331.343 79.5185C332.169 78.2791 333.408 77.8659 335.061 77.8659C336.3 77.8659 337.54 78.2791 338.366 79.1054C339.192 80.3448 339.606 81.5843 339.606 82.8237V84.0631H331.756C331.756 85.3026 332.169 86.542 332.582 87.3683C333.408 87.7814 334.235 88.1946 335.474 88.1946C336.714 88.1946 337.953 88.1946 339.192 87.3683V89.0209C338.366 89.434 337.953 89.434 337.54 89.434C336.714 89.8472 336.3 89.8472 335.474 89.8472ZM335.061 79.1054C333.822 79.1054 333.408 79.5185 332.582 80.3448C332.169 80.758 331.756 81.5843 331.756 82.8237H337.953C337.953 81.5843 337.54 80.758 337.127 80.3448C336.714 79.5185 335.887 79.1054 335.061 79.1054ZM347.455 89.8472C345.803 89.8472 344.563 89.434 343.324 88.1946C342.498 87.3683 342.084 85.7157 342.084 84.0631C342.084 81.9974 342.498 80.3448 343.324 79.5185C344.15 78.2791 345.39 77.8659 347.042 77.8659C348.695 77.8659 349.521 78.2791 350.347 79.1054C351.587 80.3448 352 81.5843 352 82.8237V84.0631H343.737C343.737 85.3026 344.15 86.542 344.977 87.3683C345.39 87.7814 346.629 88.1946 347.455 88.1946C348.695 88.1946 349.934 88.1946 351.174 87.3683V89.0209C350.761 89.434 349.934 89.434 349.521 89.434C349.108 89.8472 348.282 89.8472 347.455 89.8472ZM347.042 79.1054C346.216 79.1054 345.39 79.5185 344.977 80.3448C344.15 80.758 344.15 81.5843 343.737 82.8237H349.934C349.934 81.5843 349.521 80.758 349.108 80.3448C348.695 79.5185 347.868 79.1054 347.042 79.1054Z" fill="#FEFEFE"/>
<path d="M314.404 10.1103H316.056C316.47 10.1103 317.296 9.69717 317.709 9.28403C318.122 8.87088 318.535 8.45773 318.535 8.04459C318.535 7.2183 318.122 6.80515 317.709 6.39201C317.296 6.39201 316.883 5.97886 316.056 5.97886H314.404V10.1103ZM320.188 8.04459C320.188 8.45773 320.188 9.28403 319.775 9.69717C319.362 10.5235 318.948 10.9366 318.122 10.9366L321.427 16.3075H318.948L316.47 11.7629H314.404V16.3075H312.338V4.32628H316.056C317.709 4.32628 318.535 4.73942 319.362 5.15257C320.188 5.97886 320.188 6.80515 320.188 8.04459ZM306.141 10.5235C306.141 8.45774 306.554 6.80515 307.38 5.15257C308.207 3.91313 309.446 2.6737 311.099 1.43426C312.751 0.60797 314.404 0.194824 316.056 0.194824C318.122 0.194824 319.775 0.60797 321.427 1.43426C322.667 2.6737 323.906 3.91313 325.146 5.15257C325.972 6.80515 326.385 8.45774 326.385 10.5235C326.385 12.176 325.972 13.8286 325.146 15.4812C324.319 16.7206 323.08 17.9601 321.427 19.1995C319.775 20.0258 318.122 20.439 316.056 20.439C314.404 20.439 312.751 20.0258 311.099 19.1995C309.446 17.9601 308.207 16.7206 307.38 15.4812C306.554 13.8286 306.141 12.176 306.141 10.5235ZM307.38 10.5235C307.38 11.7629 307.793 13.4155 308.62 14.6549C309.446 15.8944 310.685 17.1338 311.925 17.9601C313.164 18.7864 314.817 19.1995 316.056 19.1995C317.709 19.1995 319.362 18.7864 320.601 17.9601C321.84 17.1338 323.08 15.8944 323.906 14.6549C324.319 13.4155 324.732 11.7629 324.732 10.5235C324.732 8.87088 324.319 7.2183 323.906 5.97886C323.08 4.73943 321.84 3.49999 320.601 2.6737C319.362 2.26055 317.709 1.84741 316.056 1.84741C314.817 1.84741 313.164 2.26055 311.925 2.6737C310.685 3.49999 309.446 4.73943 308.62 5.97886C307.793 7.2183 307.38 8.87088 307.38 10.5235Z" fill="#FEFEFE"/>
</g>
<defs>
<clipPath id="clip0_1218_124">
<rect width="352" height="95" fill="white"/>
</clipPath>
</defs>
</svg>
