<svg width="260" height="65" viewBox="0 0 260 65" fill="none" xmlns="http://www.w3.org/2000/svg">
<g clip-path="url(#clip0_1218_68)">
<path fill-rule="evenodd" clip-rule="evenodd" d="M63.6611 61.3557H80.9151C80.9151 60.1658 80.9151 56.596 80.9151 55.4061V15.5434C80.9151 14.9484 80.9151 14.9484 80.9151 14.9484C80.9151 14.9484 80.9151 14.9484 80.9151 14.3534L81.5101 16.1383C81.5101 16.7333 81.5101 16.7333 81.5101 17.3283C82.1051 18.5182 82.1051 19.7081 82.7 20.3031C82.7 21.493 83.295 22.088 83.295 23.2779L85.6749 32.2024C86.2698 33.9873 86.8648 35.7722 87.4598 38.1521C88.0547 39.9369 88.0547 41.7218 88.6497 43.5067C89.2447 44.6967 89.2447 45.8866 89.8396 46.4816C89.8396 47.6715 89.8396 48.8614 90.4346 49.4564C91.0295 52.4312 92.2195 55.4061 92.8144 58.3809C92.8144 58.9758 92.8144 59.5708 92.8144 59.5708C93.4094 60.1658 93.4094 60.7607 93.4094 61.3557H113.638C113.638 60.1658 114.233 56.596 114.828 55.4061C115.423 53.6212 116.018 51.8363 116.613 49.4564C117.208 47.6715 117.803 45.8866 117.803 43.5067C120.183 35.7722 121.968 28.0376 124.348 20.3031C124.348 19.1132 124.943 18.5182 124.943 17.3283C124.943 16.7333 125.538 14.9484 126.133 14.3534C126.133 14.9484 126.133 51.2413 126.133 58.3809C126.133 58.9758 126.133 60.7607 126.133 61.3557C126.133 61.3557 142.792 61.3557 143.387 61.3557V3.64404C142.792 3.64404 129.702 3.64404 127.917 3.64404H116.613C116.018 3.64404 113.043 3.64404 112.448 3.64404C111.258 8.99873 109.473 14.9484 108.284 20.898C107.094 25.0628 105.904 29.2276 104.714 33.3923L103.524 37.5571C103.524 37.5571 103.524 37.5571 103.524 38.1521V37.5571L94.5993 6.02391C94.5993 4.83397 94.5993 4.23901 94.0044 3.64404C93.4094 3.64404 69.6108 3.64404 67.2309 3.64404C66.636 3.64404 64.2561 3.64404 63.6611 3.64404V61.3557Z" fill="#FEFEFE"/>
<path fill-rule="evenodd" clip-rule="evenodd" d="M0 41.1268L0.594966 43.5067C0.594966 47.0765 1.7849 51.2413 3.56979 54.2161C4.16476 55.406 4.75973 56.001 5.35469 56.596L7.73455 59.5708C8.32952 59.5708 10.1144 61.3557 10.7094 61.3557C11.3043 61.9506 11.8993 61.9506 12.4943 62.5456C14.8741 63.7355 17.849 64.3305 20.8238 64.9255H21.4188H24.9886H25.5835C30.3433 64.3305 34.508 62.5456 38.0778 59.5708L38.6728 58.9758C38.6728 58.9758 38.6728 58.9758 39.2677 58.3809C39.8627 57.7859 39.8627 57.7859 39.8627 57.7859C41.6476 56.001 43.4325 52.4312 44.0275 50.6463C44.6224 48.8614 45.2174 47.0765 45.8124 45.2916C46.4073 41.1268 46.4073 36.3671 45.8124 32.7973C45.2174 29.2275 44.0275 25.0628 42.8375 22.0879C42.2426 20.3031 41.6476 18.5182 41.0526 17.3282C39.8627 15.5433 39.2677 14.3534 38.6728 12.5685C37.4828 11.3786 37.4828 10.7836 36.2929 9.59367C36.2929 8.9987 34.508 7.21381 33.913 6.61884C33.913 6.02388 33.3181 5.42891 32.7231 4.83394H32.1281C32.1281 4.23898 32.1281 4.23898 31.5332 4.23898L30.3432 3.04905C30.3432 3.04905 29.7483 3.04905 29.7483 2.45408C29.7483 2.45408 29.7483 2.45408 29.1533 2.45408L27.9634 1.26415C26.7735 0.669184 25.5835 0.669184 24.3936 0.0742188C24.3936 0.0742188 24.3936 0.0742188 23.7986 0.0742188H22.0137C22.0137 0.0742188 20.8238 0.0742188 20.8238 0.669184C20.2288 0.669184 19.6339 0.669184 19.6339 0.669184C12.4943 4.23898 7.13959 12.5685 4.16476 19.1131C3.56979 20.898 2.97483 22.6829 2.37986 25.0628C1.18993 28.0376 0.594966 31.0124 0.594966 33.9873L0 37.5571L0 41.1268Z" fill="#FEFEFE"/>
<path fill-rule="evenodd" clip-rule="evenodd" d="M260 61.3557C260 60.1658 260 58.9758 260 57.191C260 56.001 260 45.8866 260 45.8866C259.405 45.2916 235.606 45.8866 231.442 45.8866C227.277 45.2916 223.707 44.1017 220.732 41.7218C220.137 41.7218 219.542 41.1269 218.947 40.5319C218.352 39.937 218.352 39.342 217.757 38.1521C217.162 36.3672 216.567 34.5823 216.567 32.2024C216.567 27.4427 218.352 24.4678 220.732 22.6829C223.707 20.3031 227.872 19.7081 231.442 19.1131C233.821 19.1131 236.201 19.1131 238.581 19.1131C240.961 19.1131 259.405 19.1131 260 19.1131V18.5182C260 18.5182 260 18.5182 260 17.9232C260 16.1383 260 4.23901 260 3.64404C259.405 3.64404 249.291 3.64404 248.696 3.64404C245.126 3.64404 240.961 3.64404 237.391 3.64404C230.252 3.64404 223.707 3.64404 217.757 6.02391C214.188 7.21384 211.213 8.99873 208.238 11.3786C207.048 11.9736 206.453 12.5685 205.263 13.7585V14.3534C202.883 16.1383 201.098 19.7081 200.503 22.6829C198.718 28.0376 198.123 34.5823 199.313 39.937C200.503 43.5067 201.693 46.4816 204.073 49.4564L207.048 53.0262C207.643 53.0262 207.643 53.0262 207.643 53.0262L208.238 53.6212C208.833 54.2161 209.428 54.8111 210.023 54.8111C214.188 57.7859 220.732 60.1658 226.682 60.7607C231.442 61.3557 232.631 61.3557 237.391 61.3557H257.025C257.62 61.3557 259.405 61.3557 260 61.3557Z" fill="#FEFEFE"/>
<path fill-rule="evenodd" clip-rule="evenodd" d="M164.211 19.1131C164.211 19.1131 164.211 52.4312 164.211 58.3809C164.211 59.5708 164.211 60.7607 164.211 61.3557H181.465C181.465 60.7607 181.465 57.191 181.465 56.001C181.465 50.6463 181.465 19.1131 181.465 19.1131C181.465 19.1131 196.934 19.1131 197.529 19.1131C197.529 18.5182 197.529 8.40377 197.529 7.21384V3.64404C196.934 3.64404 186.224 3.64404 185.034 3.64404H151.121C150.526 3.64404 148.147 3.64404 148.147 3.64404C147.552 4.83397 148.147 6.02391 148.147 7.8088V18.5182C148.147 18.5182 148.147 18.5182 148.147 19.1131C152.906 19.1131 157.666 19.1131 161.831 19.1131H163.616H164.211Z" fill="#FEFEFE"/>
</g>
<defs>
<clipPath id="clip0_1218_68">
<rect width="260" height="65" fill="white"/>
</clipPath>
</defs>
</svg>
