<svg width="250" height="250" viewBox="0 0 312 158" fill="none" xmlns="http://www.w3.org/2000/svg">
<path d="M17.496 93.2V110H13.608V103.112H5.976V110H2.088V93.2H5.976V99.824H13.608V93.2H17.496ZM26.4332 96.896C28.4332 96.896 29.9692 97.376 31.0412 98.336C32.1132 99.28 32.6492 100.712 32.6492 102.632V110H29.1452V108.392C28.4412 109.592 27.1292 110.192 25.2092 110.192C24.2172 110.192 23.3532 110.024 22.6172 109.688C21.8972 109.352 21.3452 108.888 20.9612 108.296C20.5772 107.704 20.3852 107.032 20.3852 106.28C20.3852 105.08 20.8332 104.136 21.7292 103.448C22.6412 102.76 24.0412 102.416 25.9292 102.416H28.9052C28.9052 101.6 28.6572 100.976 28.1612 100.544C27.6652 100.096 26.9212 99.872 25.9292 99.872C25.2412 99.872 24.5612 99.984 23.8892 100.208C23.2332 100.416 22.6732 100.704 22.2092 101.072L20.8652 98.456C21.5692 97.96 22.4092 97.576 23.3852 97.304C24.3772 97.032 25.3932 96.896 26.4332 96.896ZM26.1452 107.672C26.7852 107.672 27.3532 107.528 27.8492 107.24C28.3452 106.936 28.6972 106.496 28.9052 105.92V104.6H26.3372C24.8012 104.6 24.0332 105.104 24.0332 106.112C24.0332 106.592 24.2172 106.976 24.5852 107.264C24.9692 107.536 25.4892 107.672 26.1452 107.672ZM41.5896 105.104H39.6456V110H35.9016V97.088H39.6456V102.104H41.6616L45.1656 97.088H49.1496L44.6376 103.28L49.4616 110H45.0456L41.5896 105.104ZM63.684 97.088V110H59.94V100.16H55.86L55.74 102.44C55.676 104.136 55.516 105.544 55.26 106.664C55.004 107.784 54.588 108.664 54.012 109.304C53.436 109.944 52.636 110.264 51.612 110.264C51.068 110.264 50.42 110.168 49.668 109.976L49.86 106.904C50.116 106.936 50.3 106.952 50.412 106.952C50.972 106.952 51.388 106.752 51.66 106.352C51.948 105.936 52.14 105.416 52.236 104.792C52.332 104.152 52.404 103.312 52.452 102.272L52.644 97.088H63.684ZM79.8364 103.592C79.8364 103.64 79.8124 103.976 79.7644 104.6H69.9964C70.1724 105.4 70.5884 106.032 71.2444 106.496C71.9004 106.96 72.7164 107.192 73.6924 107.192C74.3644 107.192 74.9564 107.096 75.4684 106.904C75.9964 106.696 76.4844 106.376 76.9324 105.944L78.9244 108.104C77.7084 109.496 75.9324 110.192 73.5964 110.192C72.1404 110.192 70.8524 109.912 69.7324 109.352C68.6124 108.776 67.7484 107.984 67.1404 106.976C66.5324 105.968 66.2284 104.824 66.2284 103.544C66.2284 102.28 66.5244 101.144 67.1164 100.136C67.7244 99.112 68.5484 98.32 69.5884 97.76C70.6444 97.184 71.8204 96.896 73.1164 96.896C74.3804 96.896 75.5244 97.168 76.5484 97.712C77.5724 98.256 78.3724 99.04 78.9484 100.064C79.5404 101.072 79.8364 102.248 79.8364 103.592ZM73.1404 99.728C72.2924 99.728 71.5804 99.968 71.0044 100.448C70.4284 100.928 70.0764 101.584 69.9484 102.416H76.3084C76.1804 101.6 75.8284 100.952 75.2524 100.472C74.6764 99.976 73.9724 99.728 73.1404 99.728ZM82.7063 97.088H86.4263V104.768L92.7143 97.088H96.1463V110H92.4263V102.32L86.1623 110H82.7063V97.088ZM89.1863 95.696C86.3703 95.696 84.9543 94.456 84.9383 91.976H87.3863C87.4023 92.536 87.5543 92.976 87.8423 93.296C88.1463 93.6 88.5863 93.752 89.1623 93.752C89.7383 93.752 90.1783 93.6 90.4823 93.296C90.8023 92.976 90.9623 92.536 90.9623 91.976H93.4583C93.4423 94.456 92.0183 95.696 89.1863 95.696ZM105.433 105.104H103.489V110H99.7453V97.088H103.489V102.104H105.505L109.009 97.088H112.993L108.481 103.28L113.305 110H108.889L105.433 105.104ZM115.144 97.088H118.864V104.768L125.152 97.088H128.584V110H124.864V102.32L118.6 110H115.144V97.088Z" fill="black"/>
<g clip-path="url(#clip0_970_27)">
<path fill-rule="evenodd" clip-rule="evenodd" d="M42.8831 54.091C43.5165 54.3031 44.2554 54.4091 44.6777 54.6213V54.5152L46.2612 54.6213C47.1057 54.6213 47.5279 54.6213 47.6335 54.5152C47.8446 54.4091 47.9502 54.197 48.0558 53.8788C48.3725 53.4546 48.6892 52.8182 49.217 51.9698L50.4838 50.2728L51.645 48.7879L34.9657 50.2728L35.388 50.697C36.5492 51.5455 38.0271 52.394 38.5549 52.7122C39.1883 52.9243 39.6106 53.1364 40.1384 53.3485C40.5607 53.5607 40.9829 53.6667 41.4052 53.7728L42.8831 54.091ZM29.3708 25.1364C29.6875 25.1364 29.8986 25.0304 30.3209 24.8182C30.6375 24.6061 30.9542 24.5001 31.3765 24.5001C32.221 24.394 33.1711 24.8182 34.0156 25.3485C34.8601 25.9849 35.7047 26.8334 36.2325 27.5758C36.6548 28.2122 36.8659 28.8485 36.8659 29.3788C36.9714 29.9091 36.7603 30.4395 36.4436 30.7576C36.3381 30.8637 36.1269 30.9698 35.8102 31.0758C35.5991 31.0758 35.388 31.0758 35.0713 30.9698C34.649 30.7576 34.1212 30.1213 33.6989 29.1667C33.4878 28.5304 33.0655 28.1061 32.4321 27.894C32.0099 27.6819 31.4821 27.6819 31.0598 27.6819C30.532 27.7879 30.1097 27.894 29.6875 28.2122C29.1596 28.6364 28.8429 29.2728 28.7374 30.0152C28.7374 30.2273 28.7374 30.4395 28.7374 30.6516C28.7374 31.2879 28.8429 31.8182 28.104 32.2425C27.8929 32.3485 27.6817 32.4546 27.5762 32.4546C27.2595 32.5607 26.9428 32.4546 26.6261 32.3485C26.3094 32.2425 26.0983 31.9243 25.9927 31.7122C25.8871 31.6061 25.8871 31.394 25.7816 31.2879C25.676 30.4395 25.7816 29.591 25.8871 28.8485C26.2038 28.0001 26.5205 27.2576 26.9428 26.7273C28.2096 25.4546 28.7374 25.3485 29.3708 25.1364ZM59.2457 19.7273C59.4568 19.7273 59.6679 19.7273 59.7735 19.6213C60.3013 19.3031 61.1458 19.5152 61.9904 19.9395C62.5182 20.1516 63.1516 20.5758 63.6794 21.1061C64.2072 21.5304 64.6295 22.0607 65.0517 22.591C65.5796 23.4395 65.7907 24.394 65.3684 25.2425C64.8406 26.197 64.3128 26.3031 63.6794 25.9849C63.046 25.6667 62.5182 24.5001 62.2015 23.9698L62.0959 23.6516C61.7792 23.1213 61.2514 22.8031 60.618 22.697C60.0902 22.4849 59.5624 22.591 58.929 22.8031C58.2956 23.1213 57.9789 23.4395 57.7677 23.8637C57.4511 24.2879 57.4511 24.9243 57.3455 25.7728C57.3455 26.5152 57.0288 27.0455 56.6065 27.2576C56.3954 27.3637 56.1843 27.4698 55.9731 27.4698C55.6565 27.4698 55.4453 27.3637 55.2342 27.2576C54.8119 26.9395 54.3897 26.3031 54.3897 25.1364C54.3897 24.5001 54.4952 23.7576 54.8119 23.1213C55.1286 22.3788 55.5509 21.6364 56.0787 21.2122C57.3455 19.9395 58.4011 19.8334 59.2457 19.7273ZM81.9421 32.4546L81.8366 35.2122C81.8366 36.1667 81.6254 37.1213 81.2032 37.8637C80.8865 38.7122 80.2531 39.4546 79.5141 40.091C79.303 40.197 78.9863 40.6213 78.5641 40.9394C77.2973 42.2122 75.7138 43.9091 74.447 42.9546C73.6025 42.3182 73.7081 41.5758 74.2359 40.9394C74.6582 40.3031 75.2915 39.7728 75.9249 39.3485L76.5583 38.8182C73.4969 39.0304 70.0133 39.7728 66.5296 41.1516C63.1516 42.6364 59.7735 44.6516 57.0288 47.197C55.8676 48.3637 54.4952 49.7425 53.334 51.3334C52.2784 52.6061 51.3283 53.9849 50.6949 55.2576C49.8504 56.9546 48.7947 59.2879 48.0558 61.5152C47.5279 62.7879 47.2113 64.0607 47.1057 65.1213C49.0059 63.5304 55.6565 57.4849 61.4625 52.2879C65.3684 48.6819 68.9576 45.394 70.33 44.3334C70.9634 43.8031 71.4912 43.591 71.9135 43.591C72.2302 43.591 72.5469 43.591 72.758 43.8031C72.9691 43.9091 73.0747 44.1213 73.1802 44.3334C73.3914 44.7576 73.3914 45.1819 73.1802 45.5001C72.9691 45.9243 71.9135 46.9849 71.1745 47.5152L70.7522 47.9394C67.4797 50.8031 64.3128 53.6667 61.1458 56.4243C57.8733 59.394 54.7064 62.2576 51.5394 65.0152C49.1114 67.2425 47.4224 68.7273 45.6278 69.4698C43.7276 70.2122 41.7219 70.1061 38.5549 69.1516C34.7546 68.091 30.8487 66.5001 27.2595 64.0607C23.5647 61.7273 20.1866 58.4395 17.3364 53.7728C15.6473 51.0152 14.3805 48.1516 13.536 45.1819C12.5859 42.2122 12.1637 39.1364 12.0581 36.0607V34.5758C12.0581 32.8788 12.2692 31.0758 12.5859 29.3788C12.7971 27.5758 13.2193 25.8788 13.8527 24.1819C14.1694 23.0152 14.5917 21.9546 15.0139 20.894C15.5418 19.8334 16.0696 18.7728 16.5974 17.7122C16.9141 17.0758 17.5475 16.8637 18.0753 16.8637C18.2864 16.8637 18.4976 16.8637 18.6031 16.9698C18.8143 17.0758 19.0254 17.2879 19.131 17.394C19.4477 17.9243 19.5532 18.5607 19.2365 19.197L18.7087 20.1516C18.392 20.7879 17.9697 21.4243 17.7586 22.1667C16.5974 24.9243 15.964 26.9395 15.6473 29.0607C15.2251 31.2879 15.1195 33.6213 15.1195 37.2273C15.0139 40.9395 16.3863 45.6061 18.7087 49.9546C20.82 53.9849 23.7758 57.8031 27.4706 60.5607C29.793 62.2576 31.7988 63.4243 33.6989 64.3788C35.5991 65.2273 37.4993 65.8637 39.505 66.2879C41.2996 66.8182 42.3553 67.0304 43.0942 66.8182C43.622 66.6061 44.0443 65.7576 44.361 64.0607C44.4666 63.2122 45.2055 61.091 45.7333 59.394L46.2612 57.591C43.622 57.4849 41.0885 57.0607 38.6605 56.0001C36.0214 54.9395 33.4878 53.1364 31.1654 50.8031C30.3209 49.8485 29.4763 48.6819 28.7374 47.5152C27.8929 46.0304 27.2595 44.6516 27.0483 43.591C26.3094 41.2576 27.365 40.197 29.0541 39.6667C30.2153 39.3485 31.7988 39.3485 33.0655 39.3485L34.4379 39.2425C38.9772 39.0304 43.8332 38.394 48.478 37.5455C53.2285 36.697 57.9789 35.4243 62.2015 34.0455C63.8905 33.4091 65.474 32.9849 66.6352 33.4091C67.902 33.7273 68.6409 34.894 68.6409 37.3334C69.1688 37.2273 69.9077 37.0152 70.7522 36.8031C72.1246 36.4849 73.7081 36.0607 74.8693 36.0607C75.6082 35.9546 76.2416 35.9546 76.7695 35.9546C78.6696 35.8485 78.8808 35.8485 78.8808 33.3031C78.8808 31.5001 78.4585 29.2728 77.9307 27.2576C77.4028 24.8182 76.4528 22.591 75.6082 20.894C73.7081 17.0758 71.4912 14.2122 68.9576 11.7728C66.3185 9.33339 63.2571 7.4243 59.6679 5.62127C55.8676 3.81824 51.645 2.96975 47.4224 2.96975C42.7775 2.96975 38.2382 4.03036 34.0156 5.72733C32.3266 6.46975 30.7431 7.4243 29.1596 8.48491C27.5762 9.54551 26.0983 10.7122 24.7259 11.9849C24.5148 12.197 24.0925 12.6213 23.7758 13.1516C22.7202 14.4243 21.3478 16.1213 20.081 15.697C19.131 15.2728 19.0254 14.6364 19.3421 13.7879C19.8699 12.7273 21.1367 11.3485 21.8757 10.7122L22.0868 10.394C28.4207 4.13642 36.5492 0.63642 44.7833 0.106117C53.1229 -0.424186 61.5681 1.90915 68.3243 7.4243C71.5968 9.96975 74.3415 13.1516 76.4528 16.3334C78.6696 19.8334 80.2531 23.5455 80.9921 26.8334L81.0976 27.4698C81.4143 28.8485 81.731 30.6516 81.8366 32.3485L81.9421 32.4546ZM38.7661 41.7879C36.2325 42.0001 31.5876 42.1061 29.8986 42.6364C30.0042 43.0607 30.1097 43.591 30.3209 44.1213C30.7431 45.0758 31.2709 46.0304 31.6932 46.5607C32.1155 47.3031 34.7546 47.091 36.2325 46.9849H37.077C43.1998 46.6667 48.1613 46.4546 53.7563 44.9697L54.073 44.8637C55.0231 44.5455 55.3398 44.4394 55.762 44.3334C55.9731 44.1213 56.1843 43.9091 56.7121 43.591L57.7677 42.7425C58.8234 41.894 60.1957 41.1516 61.4625 40.4091C62.9404 39.4546 64.4183 38.7122 65.6851 38.1819V37.9698C65.6851 36.8031 65.6851 36.2728 65.5796 36.1667C65.474 36.0607 64.9462 36.2728 63.9961 36.591H63.785C61.5681 37.4395 59.3512 38.0758 57.1344 38.7122C54.9175 39.2425 52.5951 39.7728 50.1671 40.3031C48.6892 40.5152 47.0001 40.9395 45.2055 41.1516C43.5165 41.4698 41.7219 41.6819 40.0328 41.7879H38.7661Z" fill="#8573D1"/>
</g>
<defs>
<clipPath id="clip0_970_27">
<rect width="70" height="70" fill="white" transform="translate(12)"/>
</clipPath>
</defs>
</svg>
