<svg width="287" height="111" viewBox="0 0 287 111" fill="none" xmlns="http://www.w3.org/2000/svg">
<g clip-path="url(#clip0_1218_139)">
<path fill-rule="evenodd" clip-rule="evenodd" d="M109.108 92.2645C110.056 89.4182 114.8 84.2 116.698 81.8281C118.595 79.4562 122.865 74.238 128.083 75.6612C129.98 83.7256 116.698 91.3157 109.108 92.2645ZM265.179 74.7124C267.551 78.9818 265.653 81.8281 263.281 84.6744C259.012 89.4182 253.319 94.6364 247.627 98.4314C234.818 106.97 230.549 100.803 247.152 85.1488C250.947 82.3025 258.063 73.7636 265.179 74.7124ZM50.7588 64.7504C49.81 64.276 48.3869 63.3273 48.8612 61.9041C52.6563 61.9041 60.7208 60.0066 63.0927 64.276C61.1951 68.0711 53.1307 66.6479 50.7588 64.7504ZM93.9274 48.1471C83.9654 55.2628 63.0927 53.3653 52.1819 48.1471C53.1307 44.3521 64.5158 35.3389 70.2084 33.4413C74.9522 36.762 73.529 41.5058 75.9009 44.8265C77.7984 41.0314 74.4778 35.3389 74.0034 31.5438C99.6199 24.4281 105.787 40.0827 93.9274 48.1471ZM40.3224 42.4546C37.4761 38.6595 34.6298 36.762 34.6298 31.0694C34.6298 15.8893 61.1951 20.1587 66.8877 29.1719C62.6183 31.5438 50.2844 33.9157 43.1687 40.557C41.7455 41.9802 42.6943 41.9802 40.3224 42.4546ZM96.2993 69.0199C97.7224 66.6479 101.517 61.9041 103.415 59.0579C114.8 44.8265 128.557 28.2232 141.365 14.9405C142.789 13.5174 156.071 -1.18842 160.341 3.08101C165.559 8.77357 138.519 33.4413 131.878 39.1339L105.312 61.9041C102.941 64.276 99.1455 67.1223 96.2993 69.0199ZM134.25 74.7124C131.403 69.9686 121.441 74.238 117.646 75.6612C97.7224 84.2 90.1323 99.8545 81.1191 100.803C74.4778 100.803 82.0679 90.367 83.0166 87.9951C88.7092 78.0331 89.6579 77.0843 97.248 71.3917L136.147 38.6595C143.263 32.0182 149.904 27.7488 157.969 19.2099C172.2 3.55539 165.084 -3.56032 153.225 2.13225C138.519 9.24795 129.506 22.0562 120.018 31.0694C107.684 42.4546 85.8629 73.7636 76.8497 80.8794C67.3621 87.9951 60.7207 97.0083 47.4381 102.701C37.9505 106.97 22.296 110.291 16.129 100.803C9.96207 91.3157 20.8728 76.1356 25.6166 72.3405C39.848 59.5322 40.3224 64.7504 44.5918 66.6479C54.0794 69.9686 70.6827 68.5455 65.4646 62.3785C62.6183 59.0579 52.1819 60.481 47.9125 60.481C47.4381 56.2116 48.8612 52.4165 50.7588 50.0446C53.1307 50.0446 56.9257 51.9422 60.2464 52.8909C99.1455 62.3785 121.441 33.4413 90.1323 28.6975C75.9009 26.3256 74.4778 31.5438 68.3108 26.3256C50.7588 10.1967 17.5522 23.9537 39.3736 43.8777C38.8993 46.724 37.0017 48.6215 36.5274 52.4165C35.5786 57.1603 37.0017 58.5835 37.4761 62.3785C27.0398 66.1736 14.7059 68.5455 6.16703 78.9818C-3.32057 89.8926 -2.37181 104.124 11.8596 108.868C24.1935 113.612 39.848 108.868 49.81 103.65C62.6183 97.0083 69.2596 87.9951 76.3753 82.7769C74.0034 88.4694 66.4133 95.5851 68.3108 103.65C79.696 109.342 92.9786 94.6364 99.1455 90.367C98.6712 93.2132 95.8249 97.4827 97.248 101.278C100.569 109.817 118.121 104.124 126.185 98.9058C136.147 92.7388 139.468 87.5207 148.007 80.8794C150.853 78.5075 153.699 76.1356 156.546 77.0843C156.546 80.405 138.045 99.8546 139.942 104.598C143.737 106.021 149.43 100.803 152.276 98.9058C158.917 94.162 180.265 74.238 186.906 76.1356C185.957 81.3537 168.879 96.0595 168.879 104.598C175.046 106.021 187.855 94.6364 192.124 90.367C195.445 87.5207 209.676 75.1868 215.843 76.1356C215.369 78.9818 209.202 86.0975 206.83 88.4694C204.932 91.3157 199.24 97.4827 200.663 103.175C208.253 111.24 226.279 93.2132 230.549 90.8413C227.703 98.4314 225.805 106.496 238.139 104.598C241.46 104.124 244.78 102.701 247.627 101.278C250.473 99.3802 252.37 97.0083 254.742 96.0595C252.37 99.8546 252.845 104.598 258.537 105.073C268.025 105.547 284.628 89.8926 287 86.0975C280.359 88.9438 272.769 100.803 263.281 100.803C263.281 95.5851 268.974 88.9438 271.346 86.0975C273.717 83.2513 280.833 76.1356 281.308 72.8149C276.089 71.3917 270.871 76.6099 268.499 78.9818C266.602 75.6612 269.448 73.2893 262.807 72.8149C253.319 71.8661 244.78 78.0331 238.613 82.7769C229.126 88.9438 218.689 100.329 210.15 100.803C210.15 96.0595 217.266 88.4694 220.587 84.2C222.01 82.3025 225.331 78.5075 223.908 75.1868C219.164 63.3273 186.431 93.2132 183.111 94.6364C185.957 89.4182 197.342 81.8281 194.496 73.7636C185.483 70.9174 177.418 77.0843 171.726 81.3537C168.405 83.7256 165.559 85.6232 162.712 87.9951C159.866 90.367 156.546 93.6876 153.699 94.6364C158.443 87.5207 166.508 80.405 164.136 74.238C151.327 67.5967 138.993 92.2645 120.018 100.329C116.223 101.752 107.684 104.598 106.736 99.8545C105.312 93.6876 111.479 93.2132 116.223 91.3157C122.39 89.4182 138.993 82.3025 134.25 74.7124Z" fill="#FEFEFE"/>
</g>
<defs>
<clipPath id="clip0_1218_139">
<rect width="287" height="111" fill="white"/>
</clipPath>
</defs>
</svg>
