<svg width="157" height="91" viewBox="0 0 157 91" fill="none" xmlns="http://www.w3.org/2000/svg">
<g clip-path="url(#clip0_1218_142)">
<path fill-rule="evenodd" clip-rule="evenodd" d="M16.1856 41.4537H33.9897V68.1598H50.1753V0.989746L33.9897 1.79902V25.2681C32.3711 25.2681 17.8041 25.2681 16.1856 25.2681V0.989746L0 1.79902V68.1598H16.1856V41.4537Z" fill="#FEFEFE"/>
<path fill-rule="evenodd" clip-rule="evenodd" d="M116.536 6.65472C116.536 6.65472 116.536 6.65472 116.536 7.464C114.918 8.27328 113.299 10.7011 112.49 12.3197C109.253 19.6032 110.062 26.0774 110.062 34.1702C110.062 45.5001 110.062 56.83 110.062 68.1599H126.247C126.247 64.1135 125.438 24.4588 126.247 22.031C127.866 14.7475 136.768 13.9382 140.005 19.6032C141.624 23.6496 140.005 26.8867 138.387 28.5052C135.149 31.7423 132.722 30.1238 128.675 30.9331V46.3094C131.912 47.1186 139.196 45.5001 142.433 44.6908C154.572 40.6444 160.237 27.696 156.191 15.5568C153.763 9.08255 147.289 2.60833 140.005 0.989771C135.149 0.180493 130.294 0.180493 126.247 0.989771C123.01 1.79905 118.155 4.22688 116.536 6.65472Z" fill="#FEFEFE"/>
<path fill-rule="evenodd" clip-rule="evenodd" d="M73.6444 17.1753V68.1598H89.83C89.83 66.5413 89.83 45.5001 89.83 42.2629C89.83 38.2165 89.0207 19.6031 89.83 17.1753H103.588V1.79902L59.0774 0.989746V17.1753H73.6444Z" fill="#FEFEFE"/>
<path fill-rule="evenodd" clip-rule="evenodd" d="M2.42783 84.3455C4.85567 84.3455 7.28351 84.3455 7.28351 86.7734C7.28351 89.2012 4.04639 88.3919 2.42783 88.3919V84.3455ZM2.42783 78.6806C4.85567 77.8713 6.47423 77.8713 7.28351 79.4898C7.28351 82.727 4.85567 82.727 2.42783 82.727V78.6806ZM8.09278 82.727C8.90206 81.9177 9.71134 81.9177 9.71134 80.2991C10.5206 75.4435 4.04639 76.2527 0 76.2527V90.8197C2.42783 90.8197 8.09278 90.8197 8.90206 90.0105C10.5206 88.3919 10.5206 84.3455 7.28351 83.5362L8.09278 82.727Z" fill="#FEFEFE"/>
<path fill-rule="evenodd" clip-rule="evenodd" d="M79.3094 82.7267L78.5001 78.6803C80.9279 77.871 84.165 77.871 84.165 80.2988C84.165 83.5359 80.9279 82.7267 79.3094 82.7267ZM84.9743 84.3452C84.9743 83.5359 86.5929 83.5359 86.5929 81.9174C87.4022 80.2988 86.5929 78.6803 85.7836 77.871C84.165 76.2524 79.3094 76.2524 76.0723 76.2524V90.8195H78.5001V85.1545H81.7372C83.3558 85.9638 83.3558 89.2009 84.165 90.8195H86.5929L84.9743 84.3452Z" fill="#FEFEFE"/>
<path fill-rule="evenodd" clip-rule="evenodd" d="M115.727 87.5825C115.727 93.2474 129.485 91.6289 126.247 84.3454C124.629 81.9175 120.582 82.7268 118.964 81.1083C118.155 79.4897 118.964 78.6804 120.582 77.8712C122.201 77.8712 123.01 78.6804 123.82 79.4897C124.629 79.4897 124.629 79.4897 124.629 79.4897L125.438 78.6804C125.438 77.8712 124.629 77.0619 123.82 76.2526C117.345 74.634 114.108 80.299 117.345 83.5361C118.964 85.1547 123.82 84.3454 123.82 86.7732C123.82 88.3918 122.201 89.2011 120.582 89.2011C118.964 88.3918 118.155 87.5825 117.345 86.7732L115.727 87.5825Z" fill="#FEFEFE"/>
<path fill-rule="evenodd" clip-rule="evenodd" d="M60.696 79.4896L62.3145 85.1545H59.0774L60.696 79.4896ZM56.6496 90.8195C57.4588 90.0102 57.4588 88.3916 58.2681 87.5823H63.1238C64.7423 90.0102 63.1238 91.6287 67.1702 90.8195C67.1702 90.0102 63.1238 77.0617 62.3145 76.2524C61.5052 76.2524 59.8867 76.2524 59.8867 76.2524C59.0774 77.0617 55.031 89.2009 55.031 90.8195H56.6496Z" fill="#FEFEFE"/>
<path fill-rule="evenodd" clip-rule="evenodd" d="M22.6598 82.7267C21.8505 81.1081 21.8505 79.4896 22.6598 78.6803H28.3247V76.2524H20.2319V90.8195H28.3247V88.3916H22.6598V84.3452H27.5154V82.7267H22.6598Z" fill="#FEFEFE"/>
<path fill-rule="evenodd" clip-rule="evenodd" d="M97.1133 76.2524C96.3041 77.871 97.1133 84.3452 97.1133 85.9638C97.1133 89.2009 97.9226 90.8195 101.969 90.8195C105.206 90.8195 106.015 89.2009 106.015 85.9638C106.825 84.3452 106.825 78.6803 106.015 76.2524C104.397 76.2524 104.397 76.2524 104.397 77.871C104.397 81.9174 105.206 87.5823 102.778 88.3916C97.1133 90.0102 100.35 79.4896 99.5412 76.2524H97.1133Z" fill="#FEFEFE"/>
<path fill-rule="evenodd" clip-rule="evenodd" d="M38.8453 76.2524C38.036 77.871 38.8453 88.3916 38.8453 90.8195H46.9381V88.3916H41.2731C40.4638 85.9638 42.0824 78.6803 40.4638 76.2524H38.8453Z" fill="#FEFEFE"/>
</g>
<defs>
<clipPath id="clip0_1218_142">
<rect width="157" height="91" fill="white"/>
</clipPath>
</defs>
</svg>
