<svg width="250" height="45" viewBox="0 0 250 45" fill="none" xmlns="http://www.w3.org/2000/svg">
<g clip-path="url(#clip0_1217_58)">
<path fill-rule="evenodd" clip-rule="evenodd" d="M58.2669 44.4886C58.2669 43.4659 66.9601 2.04545 66.9601 0H57.2442C56.7328 1.53409 54.6873 12.2727 54.6873 14.3182C54.176 16.875 53.6646 19.4318 53.1533 21.9886C52.6419 23.0114 52.1305 28.125 51.6192 29.1477L51.1078 28.125C50.5964 27.6136 50.5964 27.6136 50.5964 27.1023C50.0851 26.5909 49.5737 26.0795 49.5737 25.5682L43.9487 14.8295C42.926 12.2727 41.3919 9.71591 40.3692 7.67045C39.3464 6.13636 38.8351 5.11364 38.3237 3.57955C37.8123 2.55682 36.7896 1.53409 36.2782 0C35.2555 0 29.1192 0 28.0964 0.511364C27.5851 1.53409 27.0737 4.60227 26.5623 5.625C25.5396 12.2727 18.8919 42.9545 19.4033 44.4886C20.9373 44.4886 22.4714 44.4886 24.0055 44.4886C25.0283 44.4886 28.0964 44.4886 28.6078 43.9773C29.1192 43.4659 31.1646 31.7045 31.676 29.6591C32.1873 27.1023 34.2328 17.3864 34.2328 15.3409C35.2555 15.8523 35.2555 16.3636 35.7669 17.3864L49.5737 44.4886H58.2669Z" fill="#FEFEFE"/>
<path fill-rule="evenodd" clip-rule="evenodd" d="M161.051 44.4885C163.097 44.4885 165.142 44.4885 167.187 44.4885C170.767 44.4885 170.256 44.9999 171.278 41.9317L177.415 9.71578H185.597C189.687 9.71578 193.267 12.2726 191.733 16.8749C190.199 23.0112 182.017 21.9885 176.392 21.9885L185.597 43.9771C185.597 44.4885 185.597 43.9771 186.108 44.4885H195.312C195.312 42.9544 189.687 31.193 189.687 29.659C190.71 28.6362 193.267 28.6362 194.801 27.6135C196.847 26.5908 197.358 26.0794 198.892 24.5453C205.028 16.8749 203.494 0.51123 186.619 0.51123C181.506 0.51123 173.835 0.51123 169.233 0.51123C168.722 3.57941 160.54 43.4658 161.051 44.4885Z" fill="#FEFEFE"/>
<path fill-rule="evenodd" clip-rule="evenodd" d="M225.483 9.20448C233.665 8.18175 240.312 13.2954 240.312 20.9658C240.312 23.0113 240.312 25.0568 239.29 27.1022C239.29 27.6136 238.778 28.6363 238.267 29.1477C237.756 30.1704 237.756 30.1704 236.733 31.1931C234.687 33.7499 231.619 35.284 228.04 36.3068C219.858 37.3295 213.21 31.7045 213.21 24.034C212.699 16.3636 218.324 9.71584 225.483 9.20448ZM249.006 25.5681C250.028 22.4999 249.517 17.3863 249.006 14.8295C243.381 -4.09097 216.79 -4.60234 207.585 11.7613C204.006 16.8749 202.983 24.034 204.517 30.1704C209.631 47.5568 231.619 49.0908 242.358 38.3522C242.869 37.8408 243.381 37.3295 243.892 36.8181C246.449 33.2386 248.494 30.1704 249.006 25.5681Z" fill="#FEFEFE"/>
<path fill-rule="evenodd" clip-rule="evenodd" d="M85.3694 44.4886C87.4148 44.4886 87.4148 43.9773 87.9262 42.4432L100.199 22.5C100.71 21.4773 113.494 1.02273 113.494 0C110.938 0 108.381 0 105.824 0C104.29 0 103.778 0 103.267 1.02273L87.9262 26.0795C87.9262 26.5909 85.8807 30.1705 85.3694 30.1705C85.3694 30.1705 85.3694 30.1705 84.858 30.1705C84.858 29.6591 84.858 29.6591 84.858 29.6591C83.8353 23.5227 80.2557 2.04545 79.233 0H69.5171C69.5171 1.53409 70.5398 4.09091 70.5398 5.625L75.6535 33.2386C76.1648 35.2841 77.1875 42.9545 78.2103 44.4886H85.3694Z" fill="#FEFEFE"/>
<path fill-rule="evenodd" clip-rule="evenodd" d="M151.335 9.71591C152.869 9.20455 162.074 9.71591 162.585 9.20455C163.097 9.20455 164.119 1.53409 164.631 0H131.903C131.392 1.53409 130.369 8.18182 130.369 9.20455L141.619 9.71591C141.619 10.7386 137.017 32.7273 135.994 35.7955C135.994 37.3295 134.46 43.4659 134.46 44.4886C135.994 44.4886 143.665 44.4886 144.688 43.9773L151.335 9.71591Z" fill="#FEFEFE"/>
<path fill-rule="evenodd" clip-rule="evenodd" d="M10.1988 44.4886C10.7102 43.4659 18.892 3.06818 18.892 0H9.17609C9.17609 1.02273 0.48291 43.4659 0.48291 44.4886H10.1988Z" fill="#FEFEFE"/>
<path fill-rule="evenodd" clip-rule="evenodd" d="M126.79 0C125.256 0 118.097 0 117.074 0.511364L114.517 11.25C114.006 14.8295 108.381 43.4659 108.381 44.4886C109.403 44.4886 117.074 44.4886 118.097 43.9773L126.79 0Z" fill="#FEFEFE"/>
</g>
<defs>
<clipPath id="clip0_1217_58">
<rect width="250" height="45" fill="white"/>
</clipPath>
</defs>
</svg>
