<svg width="310" height="114" viewBox="0 0 310 114" fill="none" xmlns="http://www.w3.org/2000/svg">
<g clip-path="url(#clip0_1218_75)">
<path fill-rule="evenodd" clip-rule="evenodd" d="M192.296 28.1481C190.889 28.1481 179.16 18.7654 178.222 18.7654C179.16 20.1728 187.605 30.0247 188.074 31.4321L163.21 32.8395C160.864 32.8395 157.111 32.8395 154.765 33.3086C154.765 33.3086 155.704 33.3086 156.173 33.3086C158.988 33.7778 160.395 33.7778 162.741 33.7778L187.605 35.6543C187.136 36.1235 178.691 43.1605 176.815 44.5679C175.876 45.037 174 46.4444 173.062 47.3827C174.469 47.3827 190.42 38.4691 191.827 38.4691C192.765 41.7531 193.235 47.8519 194.173 52.0741C194.173 53.4815 194.173 55.8272 195.111 56.7654L198.395 36.1235C199.802 36.1235 212.938 35.6543 215.284 35.6543C220.444 35.1852 226.543 34.716 231.704 34.716C237.333 34.716 242.963 34.2469 248.593 34.2469L261.259 33.7778C261.728 33.7778 262.667 33.7778 263.136 33.7778C264.074 33.7778 264.543 33.7778 265.012 33.3086L201.679 30.963C202.148 30.4938 208.716 23.4568 210.593 22.0494C211.531 20.642 212.938 19.7037 213.407 18.7654C211.531 19.2346 199.333 28.1481 197.926 28.1481C197.926 26.2716 195.58 1.87654 194.642 0C194.642 2.34568 194.642 4.69136 194.173 7.03704C193.704 9.38272 193.704 11.7284 193.235 14.0741C193.235 18.7654 192.765 23.9259 192.296 28.1481Z" fill="#FEFDFD"/>
<path fill-rule="evenodd" clip-rule="evenodd" d="M165.086 114H166.494L181.975 70.3703C182.444 67.5555 183.852 64.2715 184.79 61.4567C185.728 58.6419 186.667 55.8271 188.074 53.0123C189.012 49.7283 188.543 50.6666 188.074 45.9752C188.074 45.0369 187.605 44.0987 187.136 43.6295C186.197 47.3826 183.852 54.4197 181.975 58.1727L173.062 83.9752C172.123 86.79 167.432 101.802 166.963 102.272C166.025 100.864 146.79 53.9505 145.383 51.1357C144.444 48.79 142.568 45.0369 144.444 41.753C145.383 40.8147 146.79 39.8764 148.197 39.4073C149.136 39.4073 150.074 38.9382 150.543 38.9382C151.951 38.9382 152.42 38.9382 151.951 37.5308C148.197 37.0616 142.099 37.5308 137.876 37.5308C135.531 37.5308 125.21 37.0616 123.802 37.5308C123.333 39.8764 124.272 37.9999 128.494 39.4073C134.593 41.753 136 49.2592 138.815 54.8888L155.704 93.3579C157.111 96.6419 158.988 100.395 160.395 103.679L165.086 114Z" fill="#FEFDFD"/>
<path fill-rule="evenodd" clip-rule="evenodd" d="M24.8147 90.5433C23.8765 89.605 21.9999 84.4445 21.5308 83.0371C18.716 77.4075 15.9012 70.3704 13.0863 64.7408C11.6789 61.926 13.0863 62.3951 7.92585 62.3951H1.35795C0.419678 62.3951 0.888814 61.926 0.419678 62.8643C1.35795 63.3334 2.29622 62.3951 4.17276 63.8025C5.58017 64.2717 6.04931 65.2099 6.04931 67.0865V95.2346C6.04931 97.5803 5.58017 98.9877 2.76536 99.4568C1.82709 99.4568 0.888814 99.4568 0.419678 99.926C0.888814 100.395 1.82709 100.395 3.70363 100.395H13.0863C14.0246 99.926 13.5555 100.395 14.0246 99.926C13.5555 99.4568 12.6172 99.4568 11.6789 99.4568C7.92585 98.9877 8.39499 96.1729 8.39499 93.3581C8.39499 85.3828 8.39499 76.4692 8.39499 68.963C9.33326 69.9013 9.80239 71.7778 10.2715 72.7161C11.6789 76.0001 22.4691 99.926 22.9382 100.395C23.4073 99.926 23.8765 99.4568 23.8765 98.5186L26.6913 92.4198C28.0987 89.1359 37.0123 69.4322 37.4814 68.963V95.2346C37.4814 100.395 33.7283 99.4568 32.7901 99.4568C32.7901 99.4568 32.7901 98.9877 31.8518 99.926C32.3209 100.395 31.8518 100.395 32.7901 100.395H48.2715C49.6789 99.926 48.7407 100.395 49.2098 99.926C48.2715 98.9877 46.8641 100.395 44.5184 98.5186C43.111 97.5803 43.5802 92.8889 43.5802 91.0124V68.0247C43.5802 61.4568 47.3333 64.2717 49.2098 62.8643C49.2098 61.926 48.7407 62.3951 47.3333 62.3951H37.4814C37.0123 62.8643 32.3209 74.5926 31.3826 76.4692C30.9135 77.4075 25.2839 90.0741 24.8147 90.5433Z" fill="#FEFDFD"/>
<path fill-rule="evenodd" clip-rule="evenodd" d="M244.839 88.1976C244.37 89.1359 244.37 99.926 244.839 100.864C246.247 100.864 245.309 98.0495 249.062 98.9877C251.407 99.4569 252.346 100.395 254.691 100.864C267.358 102.272 274.864 88.6667 262.197 80.2223C259.383 78.8149 256.099 76.9384 253.753 75.0618C244.37 68.4939 253.284 60.9877 260.321 65.6791C265.481 68.4939 265.012 73.1853 265.481 74.1235H265.951C266.42 73.6544 266.42 62.3951 265.951 61.926C264.543 61.926 265.951 64.7408 261.728 62.8643C248.592 58.1729 241.086 68.963 246.247 76.4692C249.531 81.6297 257.037 83.0371 261.259 88.1976C264.074 91.4816 263.605 95.7038 260.321 97.5803C255.16 100.395 248.123 97.1112 245.778 90.0742C245.778 88.6667 245.778 87.7285 244.839 88.1976Z" fill="#FEFDFD"/>
<path fill-rule="evenodd" clip-rule="evenodd" d="M122.864 85.3826C123.802 83.506 125.21 80.6912 126.148 78.8147C127.086 76.469 128.025 73.6542 128.963 71.7776C129.432 72.2468 131.778 77.4073 132.247 78.3455C132.716 79.7529 135.062 84.4443 135.062 85.3826H122.864ZM111.136 99.9258L113.481 100.395C114.42 100.395 121.457 100.395 121.926 99.9258C121.926 99.4566 122.395 99.9258 120.518 99.4566C117.235 98.5184 118.173 96.6418 119.111 94.7653C120.049 92.8887 120.988 89.6048 121.926 88.1974H136C136.469 88.6665 137.407 90.5431 137.407 91.4813C137.876 92.4196 138.815 93.3579 139.284 94.7653C141.63 99.9258 136.938 98.5184 136 99.9258C136.469 100.395 148.197 100.395 150.074 100.395L151.012 99.9258C151.012 99.4566 151.012 99.4566 150.074 99.4566C146.79 98.9875 146.321 95.7036 144.444 91.9505L132.247 64.2715C131.778 63.3332 131.778 62.3949 130.839 61.9258C129.901 62.3949 129.901 63.3332 129.432 64.2715L126.148 71.7776C124.741 75.0616 123.333 78.3455 121.926 81.6295L117.235 91.4813C116.296 94.2962 114.889 98.0492 112.543 98.9875C111.136 99.9258 111.605 99.4566 111.136 99.9258Z" fill="#FEFDFD"/>
<path fill-rule="evenodd" clip-rule="evenodd" d="M281.432 85.3826C281.432 84.9134 287.062 72.2468 287.531 71.7776C288 72.7159 288.469 74.1233 288.938 75.0616C289.876 76.9381 293.63 84.4443 293.63 85.3826H281.432ZM269.704 99.9258L279.555 100.395C280.963 100.395 280.025 100.395 280.494 99.9258C280.025 98.9875 278.148 99.9258 277.21 98.5184C276.272 97.111 277.21 95.7036 277.679 94.7653C278.148 93.3579 280.025 88.6665 280.494 87.7282H294.568C295.506 89.1357 296.913 92.8887 297.383 94.7653C297.852 95.7036 298.79 97.5801 297.852 98.5184C296.914 98.9875 295.975 98.9875 295.037 99.4566C294.099 99.4566 294.568 99.4566 294.568 99.9258C295.037 100.395 306.296 100.395 307.704 100.395C308.173 100.395 309.111 100.395 309.58 99.9258C309.111 98.5184 307.234 100.395 305.358 97.111C304.42 95.7036 303.481 93.3579 303.012 91.9505C300.197 85.3826 296.914 78.3455 294.099 71.7776C293.16 69.9011 292.222 68.4937 291.753 66.6171C291.284 65.6789 289.876 62.3949 289.407 61.9258C288.469 62.3949 285.185 70.3702 284.716 71.7776C283.309 75.0616 281.901 78.3455 280.025 81.6295C278.617 84.9134 277.21 88.1974 275.802 91.4813C274.864 94.2962 273.457 98.0492 270.642 99.4566C270.173 99.4566 269.704 99.4566 269.704 99.9258Z" fill="#FEFDFD"/>
<path fill-rule="evenodd" clip-rule="evenodd" d="M206.37 70.8393C207.309 70.8393 207.309 70.8393 207.309 69.9011C208.247 63.8023 214.815 64.7406 219.975 64.7406C219.975 74.1233 219.975 84.9134 219.975 94.2961C219.975 96.6418 219.975 99.4566 215.753 99.4566C214.346 99.4566 215.284 99.4566 214.815 99.9258C214.815 99.9258 214.815 99.9258 214.346 99.9258L215.284 100.395H230.765C231.704 100.395 231.235 100.395 231.704 99.9258L230.765 99.4566C229.827 99.4566 228.889 99.4566 227.481 98.9875C226.074 98.0492 226.074 96.6418 226.074 94.7653C226.074 91.4813 226.074 66.148 226.074 65.2097C226.543 64.2714 234.519 65.2097 234.988 65.6788C238.272 66.6171 238.272 68.4936 238.741 70.3702C239.21 71.3085 238.741 70.8393 239.679 70.8393C240.148 70.3702 239.21 64.2714 239.21 63.3332C239.21 61.9257 239.21 62.3949 236.864 62.3949H208.247C206.37 62.3949 206.84 61.9257 206.84 65.6788C206.84 67.0862 206.37 69.9011 206.37 70.8393Z" fill="#FEFDFD"/>
<path fill-rule="evenodd" clip-rule="evenodd" d="M76.4197 62.8642C76.8888 63.8024 79.2345 62.395 81.111 64.2716C82.0493 65.2098 82.0493 67.0864 82.0493 68.9629C82.0493 73.1852 82.0493 77.4074 82.0493 81.1605C82.0493 85.3827 82.0493 89.1358 82.0493 93.358C82.0493 96.6419 82.5184 99.4567 77.8271 99.4567C76.8888 99.4567 76.8888 99.4568 76.4197 99.9259C76.8888 100.395 76.4197 100.395 77.8271 100.395C78.7654 100.395 79.2345 100.395 80.1728 100.395H90.9629C96.1234 100.395 101.753 100.395 106.444 100.395C106.444 99.4568 109.259 91.4814 108.79 91.0123C108.79 90.5432 109.259 91.0123 108.79 90.5432C107.852 91.0123 108.321 92.4197 105.975 94.7654C105.037 96.1728 103.63 97.1111 101.753 97.5802C99.4073 98.0493 90.9629 98.0493 88.1481 97.5802C88.1481 94.7654 88.1481 81.1605 88.1481 77.4074C88.1481 74.1234 88.1481 70.8395 88.1481 67.5555C88.1481 65.679 88.1481 64.7407 89.5555 63.8024C91.432 62.8642 93.7777 63.3333 93.7777 62.8642C93.7777 61.9259 93.3086 62.395 91.9012 62.395C88.1481 62.395 80.1728 61.9259 77.3579 62.395C75.9505 62.395 76.8888 62.395 76.4197 62.8642Z" fill="#FEFDFD"/>
<path fill-rule="evenodd" clip-rule="evenodd" d="M54.3702 62.8642C54.3702 63.3333 55.7776 62.8642 56.7159 63.3333C60.469 63.8024 59.5307 66.6172 59.5307 68.9629V92.8888C59.5307 95.7037 60.469 98.5185 57.185 99.4567C55.3085 99.9259 54.8394 98.9876 54.3702 99.9259C54.3702 100.395 53.9011 100.395 56.2468 100.395H70.3208C71.2591 100.395 70.79 100.395 71.2591 99.9259C70.79 99.4568 70.3208 99.4567 69.8517 99.4567C68.9134 99.4567 67.506 99.4567 66.5678 98.5185C65.6295 97.1111 65.6295 95.2345 65.6295 93.358V69.4321C65.6295 66.1481 65.1604 63.3333 69.8517 63.3333C71.7283 62.8642 71.2591 63.3333 71.2591 62.8642C70.79 62.395 71.7283 62.395 69.3826 62.395H55.3085C53.9011 62.395 54.3702 62.395 54.3702 62.8642Z" fill="#FEFDFD"/>
<path fill-rule="evenodd" clip-rule="evenodd" d="M186.667 62.8642C187.136 63.3333 186.667 62.8642 187.605 62.8642C192.296 63.3333 192.296 65.679 192.296 68.9629V93.358C192.296 95.2345 192.296 97.1111 191.358 98.5185C189.95 99.9259 187.605 99.4567 187.136 99.4567C186.667 99.9259 187.136 99.4568 186.667 99.9259C188.074 100.395 196.987 100.395 199.333 100.395H202.617C203.555 100.395 203.555 100.395 203.555 99.9259C203.086 99.4568 203.555 99.4567 202.617 99.4567C197.926 99.4567 198.395 97.1111 198.395 93.358V69.4321C198.395 66.6172 197.457 63.3333 202.148 63.3333C203.086 62.8642 203.086 63.3333 203.555 62.8642C203.555 62.395 204.025 62.395 201.679 62.395H187.605C186.197 62.395 187.136 62.395 186.667 62.8642Z" fill="#FEFDFD"/>
</g>
<defs>
<clipPath id="clip0_1218_75">
<rect width="310" height="114" fill="white"/>
</clipPath>
</defs>
</svg>
