<svg width="211" height="56" viewBox="0 0 211 56" fill="none" xmlns="http://www.w3.org/2000/svg">
<g clip-path="url(#clip0_1217_50)">
<path fill-rule="evenodd" clip-rule="evenodd" d="M166.328 30.253C164.397 21.2416 171.477 12.8737 180.489 11.5864C189.5 10.299 198.511 16.7358 199.799 25.7473C201.086 35.4025 194.649 43.7703 184.994 45.0576C175.983 46.345 167.615 39.9082 166.328 30.253ZM154.741 29.6094C155.385 45.7013 168.902 56.6438 184.351 56.0002C200.443 56.0002 211.385 41.8393 210.741 26.391C210.098 10.9427 196.58 -0.643506 181.132 0.000172315C165.684 0.64385 154.098 14.1611 154.741 29.6094Z" fill="#FEFEFE"/>
<path fill-rule="evenodd" clip-rule="evenodd" d="M22.7873 43.7704C23.431 42.483 36.9482 25.7474 38.8792 22.529C40.8103 20.5979 54.9712 2.57495 54.9712 1.2876L3.47694 1.93128C3.47694 2.57495 3.47694 11.5864 3.47694 12.2301H32.4425C31.7988 14.1612 0.902223 53.4255 0.258545 54.7129H51.7528C51.7528 54.0692 51.7528 45.0577 51.7528 43.7704H22.7873Z" fill="#FEFEFE"/>
<path fill-rule="evenodd" clip-rule="evenodd" d="M140.58 14.8048C141.868 13.5175 150.236 2.57495 150.879 1.2876H136.718L116.121 28.3221C116.764 28.9658 121.914 36.0462 123.201 36.6899C125.132 39.9083 127.707 42.483 129.638 45.7014C131.569 48.2761 134.144 51.4945 136.075 54.0692C136.718 55.3566 138.006 54.7129 139.293 54.7129C140.58 54.7129 141.868 54.7129 143.155 54.7129C145.73 54.7129 148.305 54.7129 150.879 54.7129C150.236 53.4255 130.925 29.6094 130.282 28.3221L140.58 14.8048Z" fill="#FEFEFE"/>
<path fill-rule="evenodd" clip-rule="evenodd" d="M98.0976 1.931C98.0976 2.57468 97.4539 53.4253 98.0976 54.7126C98.7413 54.7126 109.04 54.7126 110.327 54.7126C110.327 54.0689 110.327 2.57468 110.327 1.931C109.04 1.28732 98.7413 1.28732 98.0976 1.931Z" fill="#FEFEFE"/>
<path fill-rule="evenodd" clip-rule="evenodd" d="M67.2012 54.7129C67.8449 54.7129 78.1437 54.7129 79.4311 54.7129C79.4311 54.0692 80.0747 3.21863 79.4311 1.2876C77.5 1.2876 67.8449 1.2876 67.2012 1.93128V54.7129Z" fill="#FEFEFE"/>
</g>
<defs>
<clipPath id="clip0_1217_50">
<rect width="211" height="56" fill="white"/>
</clipPath>
</defs>
</svg>
