<svg width="296" height="142" viewBox="0 0 296 142" fill="none" xmlns="http://www.w3.org/2000/svg">
<g clip-path="url(#clip0_1218_89)">
<path fill-rule="evenodd" clip-rule="evenodd" d="M85.468 92.9297C85.0337 92.4955 68.5322 92.9297 67.2294 92.9297C66.3609 92.9297 50.2937 92.4955 49.4252 92.9297V108.128L51.1622 106.826C52.8992 105.089 55.0704 104.22 57.6759 104.22C61.5842 103.786 65.4924 105.089 68.0979 107.26L68.9665 107.694C70.2692 109.431 71.572 111.168 72.4405 113.34C73.7432 117.682 72.8747 122.893 70.2692 126.367C69.4007 127.236 68.9665 127.67 68.5322 128.104L67.6637 128.973C67.2294 129.407 66.7952 129.841 66.3609 129.841C65.9267 130.275 65.0582 130.71 64.6239 131.144C62.4527 132.447 60.7157 133.315 58.5444 134.184C55.5047 135.486 51.1622 135.921 47.6882 135.486C42.9114 135.486 38.1346 133.749 34.2264 131.144C33.7921 130.71 32.9236 130.275 32.4894 129.841L31.6209 129.407C31.1866 128.973 30.7524 128.104 29.8839 127.67L28.5811 126.367C27.7126 125.064 26.4099 123.327 25.5414 121.59C22.5016 116.379 20.7646 108.997 22.5016 102.049C23.3701 99.0092 24.6729 95.5352 25.9756 93.364C26.8441 92.4955 27.2784 91.627 28.1469 90.7585L30.3181 88.5872C30.7524 87.7187 31.6209 86.8502 32.4894 86.416C34.6606 84.679 36.8319 83.3762 39.4374 82.5077C40.7402 82.0734 42.0429 81.6392 43.7799 81.2049C45.0827 80.7707 46.8197 80.7707 48.1224 80.7707C48.5567 80.7707 48.9909 80.7707 49.4252 80.7707V43.8594C48.5567 43.4251 42.9114 44.2936 41.1744 44.2936C35.5291 45.1621 29.8839 47.3334 25.1071 49.9389L21.6331 52.1102C20.7646 52.9787 19.8961 53.8471 18.5934 54.7157C18.5934 54.7157 18.1591 54.7157 18.1591 55.1499L16.8564 56.0184C15.5536 56.8869 14.6851 58.1897 13.3824 59.4924L12.0796 61.2294C9.4741 63.8349 6.43434 68.6117 5.13159 71.6514C3.39459 75.5597 2.09183 79.0337 1.22333 83.3762C0.35483 88.5872 -0.0794206 94.2325 0.789081 99.4435C1.65758 104.654 2.96033 108.997 4.69734 113.34C6.43434 116.814 8.17134 119.853 10.7768 122.893L12.9481 125.499C13.3824 126.367 15.5536 128.104 15.9879 128.538C15.9879 128.538 15.9879 128.973 16.4221 128.973C16.4221 128.973 16.4221 128.973 16.4221 129.407L18.1591 130.71C19.0276 131.144 19.8961 132.012 20.7646 132.447C23.8044 134.618 27.7126 137.223 32.0551 138.526C41.1744 142 52.0307 142.869 62.4527 140.263C66.7952 138.96 71.1377 137.223 74.6117 135.052C76.3487 133.749 78.0857 132.447 79.8227 131.144C80.6912 130.71 81.1255 130.275 81.994 129.407C81.994 129.407 81.994 129.407 82.4282 129.407V128.973L83.2967 128.104C83.731 128.104 83.731 127.67 83.731 127.67C84.1652 127.67 84.1652 127.236 84.5995 127.236C84.5995 126.801 85.0337 126.801 85.0337 126.801C85.468 126.367 85.468 126.367 85.468 125.933C85.0337 117.682 85.468 109.865 85.468 101.615C85.468 100.312 85.468 98.575 85.468 97.2722C85.468 95.9695 85.468 94.2325 85.468 92.9297Z" fill="#FEFEFE"/>
<path fill-rule="evenodd" clip-rule="evenodd" d="M257.431 142C258.3 142 266.985 142 266.985 142C266.985 141.132 266.985 135.486 266.985 134.184V112.905V111.168C267.419 111.168 267.419 111.168 267.419 111.602C267.419 112.037 267.853 112.471 267.853 112.905L268.722 118.55C269.156 121.156 269.59 123.761 270.024 126.367C270.459 128.973 270.893 131.578 271.327 134.184C271.327 135.486 271.761 136.789 271.761 138.092C271.761 138.526 272.196 141.566 272.63 142C272.63 142 279.578 142 280.446 142C280.446 140.697 281.315 135.921 281.749 134.184C282.183 131.578 282.618 128.973 283.052 126.367C283.486 122.024 284.355 117.248 285.223 112.905C285.223 112.471 285.223 112.037 285.223 111.602C285.223 111.168 285.223 111.168 285.657 111.168C285.657 111.602 285.657 135.052 285.657 138.092C285.657 138.96 285.657 140.697 285.657 142H295.645V92.9297H282.618L276.538 127.236C276.104 126.801 273.498 111.602 273.064 109.865L270.893 97.2722C270.893 96.4037 270.459 95.5352 270.459 95.1009C270.459 94.6667 270.024 93.3639 270.024 92.9297C269.59 92.4954 258.3 92.4954 257.431 92.9297V142Z" fill="#FEFEFE"/>
<path fill-rule="evenodd" clip-rule="evenodd" d="M67.2295 86.4159C66.7953 85.9817 65.9268 83.3761 65.4925 82.9419C64.1898 79.0336 63.3213 74.6911 63.3213 70.3486C63.3213 66.0061 64.1898 61.2294 65.4925 57.3211C65.9268 56.8869 66.7953 54.2813 67.2295 53.8471C68.5323 56.0183 69.4008 59.0581 69.835 61.2294C72.0063 68.6116 71.572 75.9939 68.9665 82.9419C68.5323 83.3761 67.6638 85.9817 67.2295 86.4159ZM57.676 61.2294C57.676 60.3609 57.2417 59.0581 57.2417 57.7554C55.939 48.2018 56.3733 40.8196 58.1103 31.2661C58.9788 25.6208 61.15 20.4098 62.887 15.1988C63.3213 14.3303 63.7555 13.4618 64.1898 12.5933C65.0583 11.2905 66.361 7.81651 67.2295 6.94801C67.2295 6.94801 68.5323 9.11927 68.5323 9.55352C72.0063 16.0673 75.046 23.8838 76.3488 30.8318C78.0858 39.5168 78.0858 45.5963 77.6515 53.8471C77.6515 55.1498 77.2173 56.4526 77.2173 57.7554C77.2173 58.6239 76.783 60.7951 76.3488 61.2294C76.3488 60.3609 76.3488 59.0581 76.3488 58.1896C76.3488 52.5443 75.4803 44.7278 74.1775 39.0826C73.7433 37.7798 73.309 36.0428 72.8748 34.7401C72.0063 33.0031 71.572 31.7003 71.1378 29.9633C70.2693 28.2263 69.4008 25.6208 68.098 23.4495C68.098 23.0153 67.6638 22.1468 67.2295 21.7125C66.361 22.1468 63.7555 28.6605 63.3213 29.9633C62.0185 33.0031 61.15 36.0428 60.2815 39.5168C58.9788 43.8593 58.1103 50.8073 58.1103 55.5841C58.1103 56.0183 58.1103 61.2294 57.676 61.2294ZM67.2295 89.4557C67.6638 89.4557 67.6638 89.0214 68.098 88.5872C69.4008 86.4159 71.572 82.9419 72.8748 80.7706C74.1775 77.2966 75.9145 73.8226 77.2173 70.3486C79.8228 61.6636 81.1255 53.8471 81.1255 44.2936C81.1255 38.2141 80.257 30.8318 78.52 25.1865C77.2173 19.5413 75.046 13.896 72.4405 9.11927C71.1378 6.07951 69.835 3.90826 68.098 1.30275C67.6638 0.868501 67.6638 0.868501 67.6638 0.434251C67.6638 0.434251 67.6638 0.434251 67.2295 0.434251C67.2295 0 67.2295 0 67.2295 0L64.1898 4.34251C63.3213 6.07951 62.4528 7.81651 61.5843 9.11927C60.2815 12.5933 58.5445 16.0673 57.2417 19.5413C54.6362 27.3578 53.3335 36.9113 53.3335 44.7278C53.3335 53.4128 54.6362 62.5321 57.2417 69.9144C58.9788 74.6911 59.413 76.4281 61.5843 80.3364L64.1898 85.1132L66.361 88.5872C66.7953 89.0214 66.7953 89.4557 67.2295 89.4557Z" fill="#FEFEFE"/>
<path fill-rule="evenodd" clip-rule="evenodd" d="M179.7 99.0092H182.74V142C183.174 142 186.648 142 187.517 142C188.82 142 190.991 142 192.294 142V92.9297H169.713V142C170.581 142 179.266 142 179.266 142L179.7 99.0092Z" fill="#FEFEFE"/>
<path fill-rule="evenodd" clip-rule="evenodd" d="M239.193 99.0092C239.627 98.5749 240.495 99.0092 240.93 99.4434C240.93 100.312 240.93 101.18 240.93 101.615C240.93 105.089 240.93 133.749 240.93 134.184C240.495 135.921 238.758 135.921 238.324 135.052C237.89 134.183 237.89 133.315 237.89 132.446V107.694C237.89 106.391 237.89 101.18 237.89 100.312C237.89 99.4434 238.324 99.0092 239.193 99.0092ZM234.85 92.9297C231.81 92.9297 230.073 94.2324 229.205 95.9694C227.902 98.5749 227.902 101.615 227.902 104.22V131.144C227.902 133.749 227.902 136.789 229.205 138.96C230.073 140.697 232.245 142 235.284 142C236.587 142 238.324 142 239.627 142C243.535 142 247.878 142.434 250.049 138.526C250.917 136.355 250.917 133.315 250.917 130.709V103.786C250.917 98.1407 250.917 92.9297 243.535 92.9297C242.232 92.9297 240.495 92.9297 239.193 92.9297C237.456 92.9297 236.153 92.9297 234.85 92.9297Z" fill="#FEFEFE"/>
<path fill-rule="evenodd" clip-rule="evenodd" d="M121.511 123.327C121.511 122.893 121.945 112.471 122.379 111.168C122.379 108.997 122.379 107.26 122.814 105.089C122.814 104.22 122.814 99.4434 123.248 99.0092H123.682C123.682 99.8777 124.116 103.786 124.116 105.089C124.116 107.694 125.419 123.327 125.419 123.327H121.511ZM110.655 142H120.208C120.208 140.697 120.642 128.972 121.077 128.972C121.077 128.972 124.985 128.972 125.853 128.972C125.853 129.407 125.853 131.578 125.853 132.012L126.288 138.526C126.288 139.395 126.288 141.132 126.722 142C129.762 142 133.236 142 136.275 142L131.064 92.9297H115.866L110.655 142Z" fill="#FEFEFE"/>
<path fill-rule="evenodd" clip-rule="evenodd" d="M150.171 108.563C150.171 106.392 150.171 102.918 150.171 100.746C150.171 99.8778 150.606 99.4435 151.04 99.0093C151.908 98.575 152.777 99.0093 153.211 99.4435C153.645 99.8778 153.211 100.746 153.211 101.615C153.211 103.352 153.211 105.089 153.211 106.826C153.211 108.129 153.645 110.3 153.211 111.603C152.777 113.34 151.908 113.774 150.171 113.774C149.303 113.774 147.566 113.774 146.263 113.774C145.395 113.774 145.395 113.774 145.395 114.208C145.395 114.642 145.395 118.985 145.395 119.419C145.829 119.419 145.829 119.419 146.263 119.419C146.263 119.419 146.263 119.419 146.697 119.419C148.869 119.419 152.343 118.985 153.211 121.156C153.645 122.025 153.211 124.63 153.211 125.499V132.881C153.211 133.749 153.645 134.184 153.211 135.052C152.777 135.486 151.908 135.921 151.474 135.486C149.737 135.052 150.171 133.315 150.171 132.012C150.171 129.841 150.171 125.933 150.171 124.63C149.303 124.63 140.618 124.63 140.618 124.63C140.184 125.933 140.618 128.104 140.618 129.407C140.618 131.578 140.184 135.486 141.052 137.658C141.052 138.092 141.486 138.526 141.921 138.96C141.921 139.829 142.355 139.829 142.789 140.263C143.658 141.132 144.526 141.566 145.829 141.566C147.132 142 152.777 142 154.948 142C156.251 142 157.554 142 158.856 141.566C161.028 140.697 162.33 138.96 162.765 136.355C163.199 134.184 163.199 130.71 163.199 127.67C163.199 123.762 164.067 118.985 160.159 117.248C158.422 116.379 157.554 116.814 156.685 116.379C156.251 115.511 157.554 116.379 159.725 115.511C163.633 113.774 163.199 109.866 163.199 105.957C163.199 103.352 163.199 100.312 162.765 97.7065C161.462 91.627 155.817 92.9297 150.606 92.9297C147.566 92.9297 145.395 92.4955 143.223 93.7982C143.223 94.2325 142.789 94.2325 142.789 94.2325C142.789 94.2325 142.789 94.2325 142.355 94.6668C142.355 94.6668 142.355 95.101 141.921 95.101C141.921 95.5353 141.486 95.9695 141.052 96.4038C140.618 97.2723 140.618 98.575 140.618 99.8778C140.618 101.615 140.618 106.826 140.618 108.563C140.618 108.563 149.303 108.563 150.171 108.563Z" fill="#FEFEFE"/>
<path fill-rule="evenodd" clip-rule="evenodd" d="M208.795 119.853V99.0093C209.664 98.5751 210.966 99.0093 211.401 99.4436C211.835 100.312 211.835 101.615 211.835 102.483V115.945C211.835 117.248 211.835 119.419 210.532 119.853C210.098 119.853 209.229 119.853 208.795 119.853ZM198.807 142H208.795V125.064C210.098 125.064 214.44 125.499 217.046 125.064C222.257 123.327 221.823 117.248 221.823 112.471C221.823 109.866 221.823 106.826 221.823 104.22C221.823 99.4436 221.823 93.7983 215.743 92.9298C214.44 92.4956 205.321 92.9298 203.15 92.9298C202.281 92.9298 199.242 92.4956 198.807 92.9298V142Z" fill="#FEFEFE"/>
<path fill-rule="evenodd" clip-rule="evenodd" d="M101.535 99.0093C101.969 99.0093 108.483 99.0093 109.786 99.0093C110.22 99.0093 110.22 99.0093 110.22 98.1408C110.22 96.4038 110.22 94.6668 110.22 92.9298C109.786 92.4956 106.312 92.9298 105.443 92.9298H91.5474V142C91.9816 142 99.7981 142 101.535 142V99.0093Z" fill="#FEFEFE"/>
</g>
<defs>
<clipPath id="clip0_1218_89">
<rect width="296" height="142" fill="white"/>
</clipPath>
</defs>
</svg>
