<svg width="301" height="53" viewBox="0 0 301 53" fill="none" xmlns="http://www.w3.org/2000/svg">
<g clip-path="url(#clip0_1217_39)">
<path fill-rule="evenodd" clip-rule="evenodd" d="M25.9499 53H29.8045C30.2863 53 32.6954 53 33.1772 53C35.5863 52.5182 38.4772 51.5545 40.8863 50.5909C40.8863 50.1091 41.3681 50.1091 41.8499 49.6273C43.2954 49.1455 42.8136 49.1455 42.8136 47.7C42.8136 45.7727 42.8136 39.9909 42.8136 39.0273L41.8499 39.5091C40.8863 40.4727 39.9227 40.9545 38.4772 41.4364C37.0318 41.9182 35.1045 42.4 33.1772 42.8818C29.3227 43.8455 25.4681 43.8455 21.6136 42.4C15.3499 39.9909 10.5318 34.6909 10.5318 26.5C10.5318 22.1636 11.9772 18.3091 14.3863 15.4182C16.3136 13.4909 19.2045 12.0455 21.6136 11.0818C24.9863 9.63636 29.3227 9.63636 33.1772 10.1182C36.5499 11.0818 38.959 12.0455 41.8499 13.4909C42.3318 13.4909 42.8136 13.9727 42.8136 13.9727C42.8136 13.4909 42.8136 8.67273 42.8136 7.22727V4.33636C42.8136 3.85455 41.3681 3.37273 40.8863 2.89091C37.9954 1.44545 35.1045 0.481818 31.7318 0H30.7681C30.7681 0 30.7681 0 30.2863 0H26.4318C26.4318 0 25.4681 0 24.9863 0C22.0954 0.481818 18.7227 1.44545 15.8318 2.40909C13.4227 3.85455 11.4954 4.81818 9.56812 6.74545C9.0863 6.74545 9.0863 6.74546 9.0863 7.22727C7.15903 8.67273 5.23176 11.0818 3.7863 13.4909C3.7863 13.4909 3.7863 13.4909 3.7863 13.9727L2.82267 15.4182C1.37721 18.7909 0.413574 22.1636 0.413574 26.5C0.413574 31.8 1.85903 37.1 4.74994 41.4364C5.23176 41.9182 5.23176 41.9182 5.71357 42.4L7.64085 44.8091C8.12267 45.2909 8.60448 45.7727 8.60448 45.7727L10.0499 47.2182C10.0499 47.2182 10.0499 47.2182 10.5318 47.2182C12.9408 49.6273 17.2772 51.5546 20.1681 52.0364C23.059 53 23.5408 53 25.4681 53C25.9499 53 25.9499 53 25.9499 53Z" fill="#FEFEFE"/>
<path fill-rule="evenodd" clip-rule="evenodd" d="M62.0863 36.6184C63.5318 36.1366 65.4591 36.6184 66.9045 36.6184C68.8318 36.6184 70.7591 36.6184 72.2045 36.6184C74.6136 36.6184 75.5772 36.1366 77.0227 37.582H77.5045C77.5045 38.0638 77.9863 38.0638 77.9863 38.5457C78.4681 39.9911 78.4681 41.4366 77.9863 42.882C77.5045 43.3638 77.0227 43.8457 76.5409 44.3275C75.5772 44.8093 74.1318 44.8093 72.2045 44.8093C71.7227 44.8093 62.5681 44.8093 62.0863 44.8093V36.6184ZM62.0863 21.2002C63.5318 21.2002 65.4591 21.2002 66.9045 21.2002C68.35 21.2002 69.7954 21.2002 71.7227 21.2002C73.1681 21.2002 74.6136 21.2002 75.5772 22.1638C77.9863 23.6093 77.9863 26.982 75.5772 28.4275C74.6136 28.9093 73.1681 28.9093 71.7227 28.9093C70.7591 28.9093 62.5681 28.9093 62.0863 28.9093V21.2002ZM53.4136 52.5184C53.4136 52.5184 74.1318 52.5184 75.5772 52.5184C77.5045 52.5184 79.9136 52.0366 81.3591 51.0729C81.8409 50.5911 82.3227 50.5911 82.8045 50.1093C83.2863 50.1093 83.2863 49.6275 83.7682 49.6275C84.25 49.1457 84.7318 48.182 85.2136 47.7002C86.1772 45.7729 87.1409 44.3275 87.1409 41.9184C87.1409 38.0638 85.6954 35.1729 83.2863 32.7638C82.8045 32.7638 82.3227 32.282 81.8409 32.282L83.2863 30.8366C85.6954 28.9093 86.6591 26.0184 86.1772 22.6457C85.2136 18.7911 82.8045 15.9002 79.9136 14.9366C77.9863 13.9729 76.5409 13.9729 74.1318 13.9729C72.6863 13.9729 53.8954 13.4911 53.4136 13.9729C52.9318 14.4547 53.4136 46.2547 53.4136 50.1093C53.4136 50.5911 52.9318 51.5547 53.4136 52.5184Z" fill="#FEFEFE"/>
<path fill-rule="evenodd" clip-rule="evenodd" d="M266.377 52.5181C266.377 52.5181 274.086 52.5181 275.05 52.5181L276.977 49.1454C279.868 45.2908 282.759 40.9545 285.65 37.0999L291.432 28.4272V27.9454C291.432 27.9454 291.432 27.4636 291.914 27.4636C291.914 29.3908 291.914 31.7999 291.914 33.7272C291.914 35.6545 291.914 52.0363 291.914 52.5181C292.395 52.5181 300.105 52.5181 300.586 52.5181C300.586 51.5545 300.586 43.8454 300.586 42.8818V23.609C300.586 22.1636 300.586 14.4545 300.586 13.9727C300.105 13.9727 292.395 13.9727 291.914 13.9727L289.505 16.8636C289.023 17.8272 288.059 18.7908 287.577 20.2363L283.241 26.0181C282.759 26.4999 282.759 27.4636 282.277 27.9454L278.905 32.2817C278.423 33.2454 277.459 34.6908 276.977 35.6545L275.05 38.5454C275.05 38.5454 275.05 38.5454 274.568 38.5454V13.9727C274.568 13.9727 266.859 13.9727 266.377 13.9727C265.895 14.4545 266.377 46.2545 266.377 50.109C266.377 50.5908 265.895 51.5545 266.377 52.5181Z" fill="#FEFEFE"/>
<path fill-rule="evenodd" clip-rule="evenodd" d="M109.304 21.2002C110.75 21.2002 114.604 21.2002 116.532 21.2002C117.495 21.2002 118.459 21.2002 119.904 21.2002C120.386 21.2002 119.904 21.682 119.904 22.1638C119.904 25.0547 119.904 28.4275 119.904 31.3184C119.904 32.7638 120.386 32.7638 119.423 32.7638H114.123C112.677 32.7638 109.304 32.7638 107.859 32.282C105.932 31.8002 104.486 30.8366 104.004 29.3911C102.559 25.5366 104.486 21.682 109.304 21.2002ZM104.486 39.9911L103.523 40.9548L99.668 45.7729C98.7044 46.2547 97.7408 47.7002 97.259 48.6638L95.3317 50.5911C94.8499 51.0729 94.8499 51.0729 94.8499 51.5547C94.368 52.0366 93.8862 52.0366 93.8862 52.5184H104.968C105.45 52.0366 105.45 52.0366 105.932 51.5547L115.086 40.4729C115.568 39.9911 116.05 40.4729 116.532 40.4729C117.014 40.4729 119.904 39.9911 119.904 40.4729C120.386 40.9547 119.904 51.0729 119.904 52.5184C120.386 52.5184 128.577 52.5184 128.577 52.5184C129.059 50.1093 128.577 47.7002 128.577 45.7729V13.9729H127.132C122.314 13.9729 117.977 13.9729 113.641 13.9729C108.823 13.9729 105.45 13.4911 101.595 15.4184C99.1862 16.8638 97.7408 18.3093 96.7771 20.7184C95.3317 22.6457 94.8499 26.5002 94.8499 28.9093C95.3317 31.3184 96.2953 33.7275 97.7408 35.1729L99.1862 37.1002C101.595 39.0275 104.004 39.5093 104.486 39.9911Z" fill="#FEFEFE"/>
<path fill-rule="evenodd" clip-rule="evenodd" d="M250.477 34.2093C250.477 36.1365 249.514 38.0638 248.55 39.5093C247.104 41.4365 245.177 43.3638 242.768 44.3275C239.395 45.2911 236.023 45.2911 233.132 43.8456C230.723 42.4002 228.795 39.9911 227.35 37.1002C226.386 34.2093 226.868 30.3547 228.313 27.4638C229.277 26.0184 229.759 25.0547 230.723 24.0911C233.132 22.1638 236.504 21.2002 239.877 21.2002C242.286 21.682 244.695 22.6456 246.141 24.0911C247.586 25.5365 249.032 26.982 249.514 28.9093C250.477 30.8366 250.477 32.282 250.477 34.2093ZM236.986 53.0002H240.841C240.841 53.0002 240.359 53.0002 241.323 53.0002C242.286 53.0002 243.732 52.5184 244.695 52.5184C248.068 51.5547 250.959 49.6275 253.368 47.2184L253.85 46.7366C255.295 44.8093 256.741 42.882 257.704 40.4729C260.114 33.7275 259.15 26.982 255.295 21.2002C254.813 20.7184 253.368 19.2729 252.886 18.7911C251.441 17.3456 251.441 17.3456 249.995 16.382C249.032 15.9002 248.068 15.4184 246.623 14.4547C244.214 13.4911 241.323 13.0093 238.432 13.0093C235.541 13.0093 232.65 13.4911 230.241 14.9365C228.313 15.4184 226.868 16.8638 224.941 17.8275C224.459 18.7911 223.014 19.7547 222.532 20.7184C222.05 21.2002 221.568 22.1638 221.086 22.6456C219.159 25.5365 218.195 28.4275 218.195 32.282C218.195 35.1729 218.677 38.0638 219.641 40.4729C220.604 42.4002 221.568 44.3275 223.013 45.7729L223.495 46.7366C223.495 46.7366 223.495 46.7366 223.977 46.7366L225.423 48.6638C228.313 51.0729 232.65 53.0002 236.504 53.0002C236.504 53.0002 236.504 53.0002 236.986 53.0002Z" fill="#FEFEFE"/>
<path fill-rule="evenodd" clip-rule="evenodd" d="M176.759 52.518H185.432V36.618H202.295V52.518C203.741 52.518 210.968 52.518 210.968 52.518V13.9725H202.295V28.9089H185.432V13.9725C183.023 13.9725 180.132 13.9725 177.241 13.9725C176.759 13.9725 176.759 13.4907 176.759 14.4543V23.1271C176.759 24.5725 176.759 52.0361 176.759 52.518Z" fill="#FEFEFE"/>
<path fill-rule="evenodd" clip-rule="evenodd" d="M148.814 53.0001H152.668H153.15C156.041 53.0001 158.932 52.0364 161.341 51.0728C163.75 50.1091 165.677 48.1819 166.641 46.2546C168.568 42.4 168.568 38.0637 165.677 34.691C164.232 32.7637 162.305 32.2819 162.305 31.8001C162.305 31.8001 162.786 31.3182 163.268 31.3182C165.677 29.391 167.123 26.0182 167.123 22.6455C166.641 18.791 163.75 16.3819 160.859 14.9364C155.077 12.0455 146.886 12.5273 140.623 14.9364C140.141 14.9364 140.141 15.4182 139.659 15.4182C139.177 15.4182 138.695 15.9001 138.214 15.9001C138.214 16.3819 138.214 23.1273 138.214 24.091C138.214 24.091 141.586 22.6455 142.068 22.6455C143.514 22.1637 144.959 21.6819 146.405 21.6819C149.295 21.2001 153.632 21.2001 156.041 22.1637C157.486 22.6455 158.45 24.091 158.45 25.5364C157.968 26.9819 157.005 27.9455 155.559 28.4273C154.114 28.9091 152.186 28.9091 150.741 28.9091C149.777 28.9091 145.923 28.9091 145.441 28.9091C144.959 28.9091 144.959 35.6546 144.959 36.6182C145.923 36.6182 150.259 36.6182 151.223 36.6182C152.668 36.6182 154.595 36.6182 156.523 37.1C157.005 37.1 157.005 37.1 157.486 37.5819C158.45 38.0637 158.932 39.0273 158.932 40.4728C158.932 45.291 149.777 45.291 146.405 44.8091C143.514 44.3273 140.623 43.3637 138.214 42.4001C138.214 41.9182 137.732 41.9182 137.25 41.9182V50.1091C140.623 52.0364 144.477 53.0001 147.85 53.0001C148.332 53.0001 148.332 53.0001 148.332 53.0001C148.814 53.0001 148.814 53.0001 148.814 53.0001Z" fill="#FEFEFE"/>
<path fill-rule="evenodd" clip-rule="evenodd" d="M270.232 1.44557C270.232 2.89102 271.677 5.78193 272.641 7.22739L273.604 8.19102C278.423 13.0092 286.614 12.5274 290.95 8.67284C292.877 7.70921 293.841 5.78193 294.323 3.85466C294.804 3.37284 295.286 1.92739 294.804 1.44557C293.841 1.44557 292.395 0.963752 291.432 0.963752C290.95 0.963752 288.541 0.481934 288.059 0.481934C288.059 1.44557 288.059 1.92739 287.577 2.40921C287.095 3.37284 286.614 3.85466 286.614 3.85466C284.204 6.26375 279.386 5.78193 277.941 2.89102C277.459 1.92739 277.459 1.44557 277.459 0.481934C276.977 0.481934 271.195 1.44557 270.232 1.44557Z" fill="#FEFEFE"/>
</g>
<defs>
<clipPath id="clip0_1217_39">
<rect width="301" height="53" fill="white"/>
</clipPath>
</defs>
</svg>
